<svg width="19" height="24" viewBox="0 0 19 24" fill="none" xmlns="http://www.w3.org/2000/svg">
<path d="M0 0V24H2.45572V23.1654C2.45572 22.7473 2.7959 22.4071 3.21403 22.4071C3.63215 22.4071 3.97234 22.7473 3.97234 23.1654V24H6.47957V23.1654C6.47957 22.7473 6.81973 22.4071 7.23783 22.4071C7.65593 22.4071 7.99611 22.7473 7.99611 23.1654V24H10.5034V23.1654C10.5034 22.7473 10.8435 22.4071 11.2616 22.4071C11.6797 22.4071 12.0199 22.7473 12.0199 23.1654V24H14.5272V23.1654C14.5272 22.7473 14.8673 22.4071 15.2854 22.4071C15.7036 22.4071 16.0437 22.7473 16.0437 23.1654V24H18.4995V0H16.0438V0.834606C16.0438 1.25273 15.7036 1.59289 15.2855 1.59289C14.8674 1.59289 14.5272 1.25273 14.5272 0.834606V0H12.0199V0.834606C12.0199 1.25273 11.6798 1.59289 11.2617 1.59289C10.8436 1.59289 10.5034 1.25273 10.5034 0.834606V0H7.99614V0.834606C7.99614 1.25273 7.65595 1.59289 7.23785 1.59289C6.81976 1.59289 6.47957 1.25273 6.47957 0.834606V0H3.97234V0.834606C3.97234 1.25273 3.63215 1.59289 3.21403 1.59289C2.7959 1.59289 2.45572 1.25273 2.45572 0.834606V0H0ZM3.21403 3.2621C4.05028 3.2621 4.7892 2.83697 5.22597 2.19155C5.66273 2.83697 6.40161 3.2621 7.23788 3.2621C8.07418 3.2621 8.81308 2.83707 9.24982 2.19155C9.68656 2.83707 10.4254 3.2621 11.2617 3.2621C12.0981 3.2621 12.837 2.83704 13.2737 2.19155C13.7104 2.83707 14.4492 3.2621 15.2856 3.2621C15.8719 3.2621 16.4104 3.05314 16.8304 2.70579V21.2942C16.4104 20.9469 15.8719 20.7379 15.2856 20.7379C14.4493 20.7379 13.7104 21.163 13.2737 21.8085C12.837 21.1629 12.0981 20.7379 11.2617 20.7379C10.4254 20.7379 9.68651 21.1629 9.24979 21.8085C8.81305 21.1629 8.07421 20.7379 7.23785 20.7379C6.40163 20.7379 5.66271 21.163 5.22594 21.8085C4.78917 21.163 4.05028 20.7379 3.214 20.7379C2.62765 20.7379 2.08918 20.9469 1.66919 21.2942V2.70579C2.08921 3.05314 2.62767 3.2621 3.21403 3.2621Z" fill="black"/>
<path d="M14.1819 5.26685H4.54199V6.93605H14.1819V5.26685Z" fill="black"/>
<path d="M14.1819 8.73364H4.54199V10.4029H14.1819V8.73364Z" fill="black"/>
<path d="M14.1819 12.2002H4.54199V13.8694H14.1819V12.2002Z" fill="black"/>
<path d="M14.182 17.2078H8.01904V18.877H14.182V17.2078Z" fill="black"/>
</svg>
