<svg width="837" height="568" viewBox="0 0 837 568" fill="none" xmlns="http://www.w3.org/2000/svg">
<path d="M26.3711 17.5234C26.3711 16.8594 26.1367 16.3516 25.668 16C25.1992 15.6406 24.3555 15.2656 23.1367 14.875C21.918 14.4766 20.9531 14.0859 20.2422 13.7031C18.3047 12.6562 17.3359 11.2461 17.3359 9.47266C17.3359 8.55078 17.5938 7.73047 18.1094 7.01172C18.6328 6.28516 19.3789 5.71875 20.3477 5.3125C21.3242 4.90625 22.418 4.70312 23.6289 4.70312C24.8477 4.70312 25.9336 4.92578 26.8867 5.37109C27.8398 5.80859 28.5781 6.42969 29.1016 7.23438C29.6328 8.03906 29.8984 8.95312 29.8984 9.97656H26.3828C26.3828 9.19531 26.1367 8.58984 25.6445 8.16016C25.1523 7.72266 24.4609 7.50391 23.5703 7.50391C22.7109 7.50391 22.043 7.6875 21.5664 8.05469C21.0898 8.41406 20.8516 8.89062 20.8516 9.48438C20.8516 10.0391 21.1289 10.5039 21.6836 10.8789C22.2461 11.2539 23.0703 11.6055 24.1562 11.9336C26.1562 12.5352 27.6133 13.2812 28.5273 14.1719C29.4414 15.0625 29.8984 16.1719 29.8984 17.5C29.8984 18.9766 29.3398 20.1367 28.2227 20.9805C27.1055 21.8164 25.6016 22.2344 23.7109 22.2344C22.3984 22.2344 21.2031 21.9961 20.125 21.5195C19.0469 21.0352 18.2227 20.375 17.6523 19.5391C17.0898 18.7031 16.8086 17.7344 16.8086 16.6328H20.3359C20.3359 18.5156 21.4609 19.457 23.7109 19.457C24.5469 19.457 25.1992 19.2891 25.668 18.9531C26.1367 18.6094 26.3711 18.1328 26.3711 17.5234ZM31.5391 15.543C31.5391 14.2852 31.7812 13.1641 32.2656 12.1797C32.75 11.1953 33.4453 10.4336 34.3516 9.89453C35.2656 9.35547 36.3242 9.08594 37.5273 9.08594C39.2383 9.08594 40.6328 9.60938 41.7109 10.6562C42.7969 11.7031 43.4023 13.125 43.5273 14.9219L43.5508 15.7891C43.5508 17.7344 43.0078 19.2969 41.9219 20.4766C40.8359 21.6484 39.3789 22.2344 37.5508 22.2344C35.7227 22.2344 34.2617 21.6484 33.168 20.4766C32.082 19.3047 31.5391 17.7109 31.5391 15.6953V15.543ZM34.9258 15.7891C34.9258 16.9922 35.1523 17.9141 35.6055 18.5547C36.0586 19.1875 36.707 19.5039 37.5508 19.5039C38.3711 19.5039 39.0117 19.1914 39.4727 18.5664C39.9336 17.9336 40.1641 16.9258 40.1641 15.543C40.1641 14.3633 39.9336 13.4492 39.4727 12.8008C39.0117 12.1523 38.3633 11.8281 37.5273 11.8281C36.6992 11.8281 36.0586 12.1523 35.6055 12.8008C35.1523 13.4414 34.9258 14.4375 34.9258 15.7891ZM50.9102 19.5039C51.5352 19.5039 52.043 19.332 52.4336 18.9883C52.8242 18.6445 53.0273 18.1875 53.043 17.6172H56.2188C56.2109 18.4766 55.9766 19.2656 55.5156 19.9844C55.0547 20.6953 54.4219 21.25 53.6172 21.6484C52.8203 22.0391 51.9375 22.2344 50.9688 22.2344C49.1562 22.2344 47.7266 21.6602 46.6797 20.5117C45.6328 19.3555 45.1094 17.7617 45.1094 15.7305V15.5078C45.1094 13.5547 45.6289 11.9961 46.668 10.832C47.707 9.66797 49.1328 9.08594 50.9453 9.08594C52.5312 9.08594 53.8008 9.53906 54.7539 10.4453C55.7148 11.3438 56.2031 12.543 56.2188 14.043H53.043C53.0273 13.3867 52.8242 12.8555 52.4336 12.4492C52.043 12.0352 51.5273 11.8281 50.8867 11.8281C50.0977 11.8281 49.5 12.1172 49.0938 12.6953C48.6953 13.2656 48.4961 14.1953 48.4961 15.4844V15.8359C48.4961 17.1406 48.6953 18.0781 49.0938 18.6484C49.4922 19.2188 50.0977 19.5039 50.9102 19.5039ZM61.7266 22H58.3281V9.32031H61.7266V22ZM58.1289 6.03906C58.1289 5.53125 58.2969 5.11328 58.6328 4.78516C58.9766 4.45703 59.4414 4.29297 60.0273 4.29297C60.6055 4.29297 61.0664 4.45703 61.4102 4.78516C61.7539 5.11328 61.9258 5.53125 61.9258 6.03906C61.9258 6.55469 61.75 6.97656 61.3984 7.30469C61.0547 7.63281 60.5977 7.79688 60.0273 7.79688C59.457 7.79688 58.9961 7.63281 58.6445 7.30469C58.3008 6.97656 58.1289 6.55469 58.1289 6.03906ZM71.875 22C71.7188 21.6953 71.6055 21.3164 71.5352 20.8633C70.7148 21.7773 69.6484 22.2344 68.3359 22.2344C67.0938 22.2344 66.0625 21.875 65.2422 21.1562C64.4297 20.4375 64.0234 19.5312 64.0234 18.4375C64.0234 17.0938 64.5195 16.0625 65.5117 15.3438C66.5117 14.625 67.9531 14.2617 69.8359 14.2539H71.3945V13.5273C71.3945 12.9414 71.2422 12.4727 70.9375 12.1211C70.6406 11.7695 70.168 11.5938 69.5195 11.5938C68.9492 11.5938 68.5 11.7305 68.1719 12.0039C67.8516 12.2773 67.6914 12.6523 67.6914 13.1289H64.3047C64.3047 12.3945 64.5312 11.7148 64.9844 11.0898C65.4375 10.4648 66.0781 9.97656 66.9062 9.625C67.7344 9.26562 68.6641 9.08594 69.6953 9.08594C71.2578 9.08594 72.4961 9.48047 73.4102 10.2695C74.332 11.0508 74.793 12.1523 74.793 13.5742V19.0703C74.8008 20.2734 74.9688 21.1836 75.2969 21.8008V22H71.875ZM69.0742 19.6445C69.5742 19.6445 70.0352 19.5352 70.457 19.3164C70.8789 19.0898 71.1914 18.7891 71.3945 18.4141V16.2344H70.1289C68.4336 16.2344 67.5312 16.8203 67.4219 17.9922L67.4102 18.1914C67.4102 18.6133 67.5586 18.9609 67.8555 19.2344C68.1523 19.5078 68.5586 19.6445 69.0742 19.6445ZM80.9688 22H77.5703V4H80.9688V22ZM94.5625 4.9375L98.9453 17.3125L103.305 4.9375H107.922V22H104.395V17.3359L104.746 9.28516L100.141 22H97.7266L93.1328 9.29688L93.4844 17.3359V22H89.9688V4.9375H94.5625ZM116.605 22.2344C114.746 22.2344 113.23 21.6641 112.059 20.5234C110.895 19.3828 110.312 17.8633 110.312 15.9648V15.6367C110.312 14.3633 110.559 13.2266 111.051 12.2266C111.543 11.2188 112.238 10.4453 113.137 9.90625C114.043 9.35938 115.074 9.08594 116.23 9.08594C117.965 9.08594 119.328 9.63281 120.32 10.7266C121.32 11.8203 121.82 13.3711 121.82 15.3789V16.7617H113.746C113.855 17.5898 114.184 18.2539 114.73 18.7539C115.285 19.2539 115.984 19.5039 116.828 19.5039C118.133 19.5039 119.152 19.0312 119.887 18.0859L121.551 19.9492C121.043 20.668 120.355 21.2305 119.488 21.6367C118.621 22.0352 117.66 22.2344 116.605 22.2344ZM116.219 11.8281C115.547 11.8281 115 12.0547 114.578 12.5078C114.164 12.9609 113.898 13.6094 113.781 14.4531H118.492V14.1836C118.477 13.4336 118.273 12.8555 117.883 12.4492C117.492 12.0352 116.938 11.8281 116.219 11.8281ZM123.227 15.5664C123.227 13.5898 123.668 12.0156 124.551 10.8438C125.441 9.67188 126.656 9.08594 128.195 9.08594C129.43 9.08594 130.449 9.54688 131.254 10.4688V4H134.652V22H131.594L131.43 20.6523C130.586 21.707 129.5 22.2344 128.172 22.2344C126.68 22.2344 125.48 21.6484 124.574 20.4766C123.676 19.2969 123.227 17.6602 123.227 15.5664ZM126.613 15.8125C126.613 17 126.82 17.9102 127.234 18.543C127.648 19.1758 128.25 19.4922 129.039 19.4922C130.086 19.4922 130.824 19.0508 131.254 18.168V13.1641C130.832 12.2812 130.102 11.8398 129.062 11.8398C127.43 11.8398 126.613 13.1641 126.613 15.8125ZM140.852 22H137.453V9.32031H140.852V22ZM137.254 6.03906C137.254 5.53125 137.422 5.11328 137.758 4.78516C138.102 4.45703 138.566 4.29297 139.152 4.29297C139.73 4.29297 140.191 4.45703 140.535 4.78516C140.879 5.11328 141.051 5.53125 141.051 6.03906C141.051 6.55469 140.875 6.97656 140.523 7.30469C140.18 7.63281 139.723 7.79688 139.152 7.79688C138.582 7.79688 138.121 7.63281 137.77 7.30469C137.426 6.97656 137.254 6.55469 137.254 6.03906ZM151 22C150.844 21.6953 150.73 21.3164 150.66 20.8633C149.84 21.7773 148.773 22.2344 147.461 22.2344C146.219 22.2344 145.188 21.875 144.367 21.1562C143.555 20.4375 143.148 19.5312 143.148 18.4375C143.148 17.0938 143.645 16.0625 144.637 15.3438C145.637 14.625 147.078 14.2617 148.961 14.2539H150.52V13.5273C150.52 12.9414 150.367 12.4727 150.062 12.1211C149.766 11.7695 149.293 11.5938 148.645 11.5938C148.074 11.5938 147.625 11.7305 147.297 12.0039C146.977 12.2773 146.816 12.6523 146.816 13.1289H143.43C143.43 12.3945 143.656 11.7148 144.109 11.0898C144.562 10.4648 145.203 9.97656 146.031 9.625C146.859 9.26562 147.789 9.08594 148.82 9.08594C150.383 9.08594 151.621 9.48047 152.535 10.2695C153.457 11.0508 153.918 12.1523 153.918 13.5742V19.0703C153.926 20.2734 154.094 21.1836 154.422 21.8008V22H151ZM148.199 19.6445C148.699 19.6445 149.16 19.5352 149.582 19.3164C150.004 19.0898 150.316 18.7891 150.52 18.4141V16.2344H149.254C147.559 16.2344 146.656 16.8203 146.547 17.9922L146.535 18.1914C146.535 18.6133 146.684 18.9609 146.98 19.2344C147.277 19.5078 147.684 19.6445 148.199 19.6445ZM176.113 16.3164C175.98 18.1523 175.301 19.5977 174.074 20.6523C172.855 21.707 171.246 22.2344 169.246 22.2344C167.059 22.2344 165.336 21.5 164.078 20.0312C162.828 18.5547 162.203 16.5312 162.203 13.9609V12.918C162.203 11.2773 162.492 9.83203 163.07 8.58203C163.648 7.33203 164.473 6.375 165.543 5.71094C166.621 5.03906 167.871 4.70312 169.293 4.70312C171.262 4.70312 172.848 5.23047 174.051 6.28516C175.254 7.33984 175.949 8.82031 176.137 10.7266H172.621C172.535 9.625 172.227 8.82812 171.695 8.33594C171.172 7.83594 170.371 7.58594 169.293 7.58594C168.121 7.58594 167.242 8.00781 166.656 8.85156C166.078 9.6875 165.781 10.9883 165.766 12.7539V14.043C165.766 15.8867 166.043 17.2344 166.598 18.0859C167.16 18.9375 168.043 19.3633 169.246 19.3633C170.332 19.3633 171.141 19.1172 171.672 18.625C172.211 18.125 172.52 17.3555 172.598 16.3164H176.113ZM185.547 22C185.391 21.6953 185.277 21.3164 185.207 20.8633C184.387 21.7773 183.32 22.2344 182.008 22.2344C180.766 22.2344 179.734 21.875 178.914 21.1562C178.102 20.4375 177.695 19.5312 177.695 18.4375C177.695 17.0938 178.191 16.0625 179.184 15.3438C180.184 14.625 181.625 14.2617 183.508 14.2539H185.066V13.5273C185.066 12.9414 184.914 12.4727 184.609 12.1211C184.312 11.7695 183.84 11.5938 183.191 11.5938C182.621 11.5938 182.172 11.7305 181.844 12.0039C181.523 12.2773 181.363 12.6523 181.363 13.1289H177.977C177.977 12.3945 178.203 11.7148 178.656 11.0898C179.109 10.4648 179.75 9.97656 180.578 9.625C181.406 9.26562 182.336 9.08594 183.367 9.08594C184.93 9.08594 186.168 9.48047 187.082 10.2695C188.004 11.0508 188.465 12.1523 188.465 13.5742V19.0703C188.473 20.2734 188.641 21.1836 188.969 21.8008V22H185.547ZM182.746 19.6445C183.246 19.6445 183.707 19.5352 184.129 19.3164C184.551 19.0898 184.863 18.7891 185.066 18.4141V16.2344H183.801C182.105 16.2344 181.203 16.8203 181.094 17.9922L181.082 18.1914C181.082 18.6133 181.23 18.9609 181.527 19.2344C181.824 19.5078 182.23 19.6445 182.746 19.6445ZM194.242 9.32031L194.348 10.7383C195.246 9.63672 196.461 9.08594 197.992 9.08594C199.625 9.08594 200.746 9.73047 201.355 11.0195C202.246 9.73047 203.516 9.08594 205.164 9.08594C206.539 9.08594 207.562 9.48828 208.234 10.293C208.906 11.0898 209.242 12.293 209.242 13.9023V22H205.844V13.9141C205.844 13.1953 205.703 12.6719 205.422 12.3438C205.141 12.0078 204.645 11.8398 203.934 11.8398C202.918 11.8398 202.215 12.3242 201.824 13.293L201.836 22H198.449V13.9258C198.449 13.1914 198.305 12.6602 198.016 12.332C197.727 12.0039 197.234 11.8398 196.539 11.8398C195.578 11.8398 194.883 12.2383 194.453 13.0352V22H191.066V9.32031H194.242ZM223.27 15.7773C223.27 17.7305 222.824 19.2969 221.934 20.4766C221.051 21.6484 219.855 22.2344 218.348 22.2344C217.066 22.2344 216.031 21.7891 215.242 20.8984V26.875H211.855V9.32031H214.996L215.113 10.5625C215.934 9.57812 217.004 9.08594 218.324 9.08594C219.887 9.08594 221.102 9.66406 221.969 10.8203C222.836 11.9766 223.27 13.5703 223.27 15.6016V15.7773ZM219.883 15.5312C219.883 14.3516 219.672 13.4414 219.25 12.8008C218.836 12.1602 218.23 11.8398 217.434 11.8398C216.371 11.8398 215.641 12.2461 215.242 13.0586V18.25C215.656 19.0859 216.395 19.5039 217.457 19.5039C219.074 19.5039 219.883 18.1797 219.883 15.5312ZM232.727 22C232.57 21.6953 232.457 21.3164 232.387 20.8633C231.566 21.7773 230.5 22.2344 229.188 22.2344C227.945 22.2344 226.914 21.875 226.094 21.1562C225.281 20.4375 224.875 19.5312 224.875 18.4375C224.875 17.0938 225.371 16.0625 226.363 15.3438C227.363 14.625 228.805 14.2617 230.688 14.2539H232.246V13.5273C232.246 12.9414 232.094 12.4727 231.789 12.1211C231.492 11.7695 231.02 11.5938 230.371 11.5938C229.801 11.5938 229.352 11.7305 229.023 12.0039C228.703 12.2773 228.543 12.6523 228.543 13.1289H225.156C225.156 12.3945 225.383 11.7148 225.836 11.0898C226.289 10.4648 226.93 9.97656 227.758 9.625C228.586 9.26562 229.516 9.08594 230.547 9.08594C232.109 9.08594 233.348 9.48047 234.262 10.2695C235.184 11.0508 235.645 12.1523 235.645 13.5742V19.0703C235.652 20.2734 235.82 21.1836 236.148 21.8008V22H232.727ZM229.926 19.6445C230.426 19.6445 230.887 19.5352 231.309 19.3164C231.73 19.0898 232.043 18.7891 232.246 18.4141V16.2344H230.98C229.285 16.2344 228.383 16.8203 228.273 17.9922L228.262 18.1914C228.262 18.6133 228.41 18.9609 228.707 19.2344C229.004 19.5078 229.41 19.6445 229.926 19.6445ZM237.754 15.5664C237.754 13.6211 238.215 12.0547 239.137 10.8672C240.066 9.67969 241.316 9.08594 242.887 9.08594C244.277 9.08594 245.359 9.5625 246.133 10.5156L246.273 9.32031H249.344V21.5781C249.344 22.6875 249.09 23.6523 248.582 24.4727C248.082 25.293 247.375 25.918 246.461 26.3477C245.547 26.7773 244.477 26.9922 243.25 26.9922C242.32 26.9922 241.414 26.8047 240.531 26.4297C239.648 26.0625 238.98 25.5859 238.527 25L240.027 22.9375C240.871 23.8828 241.895 24.3555 243.098 24.3555C243.996 24.3555 244.695 24.1133 245.195 23.6289C245.695 23.1523 245.945 22.4727 245.945 21.5898V20.9102C245.164 21.793 244.137 22.2344 242.863 22.2344C241.34 22.2344 240.105 21.6406 239.16 20.4531C238.223 19.2578 237.754 17.6758 237.754 15.707V15.5664ZM241.141 15.8125C241.141 16.9609 241.371 17.8633 241.832 18.5195C242.293 19.168 242.926 19.4922 243.73 19.4922C244.762 19.4922 245.5 19.1055 245.945 18.332V13C245.492 12.2266 244.762 11.8398 243.754 11.8398C242.941 11.8398 242.301 12.1719 241.832 12.8359C241.371 13.5 241.141 14.4922 241.141 15.8125ZM255.531 22H252.133V9.32031H255.531V22ZM251.934 6.03906C251.934 5.53125 252.102 5.11328 252.438 4.78516C252.781 4.45703 253.246 4.29297 253.832 4.29297C254.41 4.29297 254.871 4.45703 255.215 4.78516C255.559 5.11328 255.73 5.53125 255.73 6.03906C255.73 6.55469 255.555 6.97656 255.203 7.30469C254.859 7.63281 254.402 7.79688 253.832 7.79688C253.262 7.79688 252.801 7.63281 252.449 7.30469C252.105 6.97656 251.934 6.55469 251.934 6.03906ZM261.449 9.32031L261.555 10.7852C262.461 9.65234 263.676 9.08594 265.199 9.08594C266.543 9.08594 267.543 9.48047 268.199 10.2695C268.855 11.0586 269.191 12.2383 269.207 13.8086V22H265.82V13.8906C265.82 13.1719 265.664 12.6523 265.352 12.332C265.039 12.0039 264.52 11.8398 263.793 11.8398C262.84 11.8398 262.125 12.2461 261.648 13.0586V22H258.262V9.32031H261.449ZM278.652 18.4961C278.652 18.082 278.445 17.7578 278.031 17.5234C277.625 17.2812 276.969 17.0664 276.062 16.8789C273.047 16.2461 271.539 14.9648 271.539 13.0352C271.539 11.9102 272.004 10.9727 272.934 10.2227C273.871 9.46484 275.094 9.08594 276.602 9.08594C278.211 9.08594 279.496 9.46484 280.457 10.2227C281.426 10.9805 281.91 11.9648 281.91 13.1758H278.523C278.523 12.6914 278.367 12.293 278.055 11.9805C277.742 11.6602 277.254 11.5 276.59 11.5C276.02 11.5 275.578 11.6289 275.266 11.8867C274.953 12.1445 274.797 12.4727 274.797 12.8711C274.797 13.2461 274.973 13.5508 275.324 13.7852C275.684 14.0117 276.285 14.2109 277.129 14.3828C277.973 14.5469 278.684 14.7344 279.262 14.9453C281.051 15.6016 281.945 16.7383 281.945 18.3555C281.945 19.5117 281.449 20.4492 280.457 21.168C279.465 21.8789 278.184 22.2344 276.613 22.2344C275.551 22.2344 274.605 22.0469 273.777 21.6719C272.957 21.2891 272.312 20.7695 271.844 20.1133C271.375 19.4492 271.141 18.7344 271.141 17.9688H274.352C274.383 18.5703 274.605 19.0312 275.02 19.3516C275.434 19.6719 275.988 19.832 276.684 19.832C277.332 19.832 277.82 19.7109 278.148 19.4688C278.484 19.2188 278.652 18.8945 278.652 18.4961Z" fill="black"/>
<path d="M220.87 564.539L222.401 557.047H224.117L221.82 567H220.166L218.272 559.733L216.338 567H214.677L212.38 557.047H214.096L215.641 564.525L217.541 557.047H218.99L220.87 564.539ZM228.26 567.137C227.207 567.137 226.353 566.806 225.696 566.146C225.045 565.48 224.719 564.596 224.719 563.493V563.288C224.719 562.55 224.86 561.891 225.143 561.312C225.43 560.729 225.831 560.276 226.346 559.952C226.861 559.629 227.435 559.467 228.068 559.467C229.076 559.467 229.853 559.788 230.399 560.431C230.951 561.073 231.227 561.982 231.227 563.158V563.828H226.394C226.444 564.439 226.646 564.922 227.002 565.277C227.362 565.633 227.813 565.811 228.355 565.811C229.117 565.811 229.736 565.503 230.215 564.888L231.11 565.742C230.814 566.184 230.418 566.528 229.921 566.774C229.429 567.016 228.875 567.137 228.26 567.137ZM228.062 560.8C227.606 560.8 227.237 560.959 226.954 561.278C226.676 561.597 226.498 562.042 226.421 562.611H229.586V562.488C229.549 561.932 229.401 561.513 229.142 561.23C228.882 560.943 228.522 560.8 228.062 560.8ZM235.779 567.137C234.727 567.137 233.872 566.806 233.216 566.146C232.564 565.48 232.238 564.596 232.238 563.493V563.288C232.238 562.55 232.38 561.891 232.662 561.312C232.949 560.729 233.35 560.276 233.865 559.952C234.38 559.629 234.954 559.467 235.588 559.467C236.595 559.467 237.372 559.788 237.919 560.431C238.47 561.073 238.746 561.982 238.746 563.158V563.828H233.913C233.963 564.439 234.166 564.922 234.521 565.277C234.882 565.633 235.333 565.811 235.875 565.811C236.636 565.811 237.256 565.503 237.734 564.888L238.63 565.742C238.334 566.184 237.937 566.528 237.44 566.774C236.948 567.016 236.395 567.137 235.779 567.137ZM235.581 560.8C235.125 560.8 234.756 560.959 234.474 561.278C234.196 561.597 234.018 562.042 233.94 562.611H237.105V562.488C237.069 561.932 236.921 561.513 236.661 561.23C236.401 560.943 236.041 560.8 235.581 560.8ZM242.444 563.828L241.706 564.587V567H240.045V556.5H241.706V562.557L242.226 561.907L244.27 559.604H246.266L243.518 562.687L246.56 567H244.639L242.444 563.828ZM255.234 567H253.58V559.009L251.14 559.843V558.441L255.022 557.013H255.234V567Z" fill="#42427D"/>
<path d="M413.87 564.539L415.401 557.047H417.117L414.82 567H413.166L411.272 559.733L409.338 567H407.677L405.38 557.047H407.096L408.641 564.525L410.541 557.047H411.99L413.87 564.539ZM421.26 567.137C420.207 567.137 419.353 566.806 418.696 566.146C418.045 565.48 417.719 564.596 417.719 563.493V563.288C417.719 562.55 417.86 561.891 418.143 561.312C418.43 560.729 418.831 560.276 419.346 559.952C419.861 559.629 420.435 559.467 421.068 559.467C422.076 559.467 422.853 559.788 423.399 560.431C423.951 561.073 424.227 561.982 424.227 563.158V563.828H419.394C419.444 564.439 419.646 564.922 420.002 565.277C420.362 565.633 420.813 565.811 421.355 565.811C422.117 565.811 422.736 565.503 423.215 564.888L424.11 565.742C423.814 566.184 423.418 566.528 422.921 566.774C422.429 567.016 421.875 567.137 421.26 567.137ZM421.062 560.8C420.606 560.8 420.237 560.959 419.954 561.278C419.676 561.597 419.498 562.042 419.421 562.611H422.586V562.488C422.549 561.932 422.401 561.513 422.142 561.23C421.882 560.943 421.522 560.8 421.062 560.8ZM428.779 567.137C427.727 567.137 426.872 566.806 426.216 566.146C425.564 565.48 425.238 564.596 425.238 563.493V563.288C425.238 562.55 425.38 561.891 425.662 561.312C425.949 560.729 426.35 560.276 426.865 559.952C427.38 559.629 427.954 559.467 428.588 559.467C429.595 559.467 430.372 559.788 430.919 560.431C431.47 561.073 431.746 561.982 431.746 563.158V563.828H426.913C426.963 564.439 427.166 564.922 427.521 565.277C427.882 565.633 428.333 565.811 428.875 565.811C429.636 565.811 430.256 565.503 430.734 564.888L431.63 565.742C431.334 566.184 430.937 566.528 430.44 566.774C429.948 567.016 429.395 567.137 428.779 567.137ZM428.581 560.8C428.125 560.8 427.756 560.959 427.474 561.278C427.196 561.597 427.018 562.042 426.94 562.611H430.105V562.488C430.069 561.932 429.921 561.513 429.661 561.23C429.401 560.943 429.041 560.8 428.581 560.8ZM435.444 563.828L434.706 564.587V567H433.045V556.5H434.706V562.557L435.226 561.907L437.27 559.604H439.266L436.518 562.687L439.56 567H437.639L435.444 563.828ZM450.429 567H443.736V565.858L447.052 562.242C447.53 561.709 447.87 561.265 448.07 560.909C448.275 560.549 448.378 560.189 448.378 559.829C448.378 559.355 448.243 558.972 447.975 558.681C447.71 558.389 447.353 558.243 446.901 558.243C446.364 558.243 445.947 558.407 445.65 558.735C445.354 559.063 445.206 559.512 445.206 560.082H443.545C443.545 559.476 443.682 558.931 443.955 558.448C444.233 557.961 444.627 557.582 445.138 557.313C445.653 557.045 446.245 556.91 446.915 556.91C447.881 556.91 448.642 557.154 449.198 557.642C449.759 558.125 450.039 558.795 450.039 559.651C450.039 560.148 449.898 560.67 449.615 561.217C449.337 561.759 448.879 562.377 448.241 563.069L445.808 565.674H450.429V567Z" fill="#42427D"/>
<path d="M606.87 564.539L608.401 557.047H610.117L607.82 567H606.166L604.272 559.733L602.338 567H600.677L598.38 557.047H600.096L601.641 564.525L603.541 557.047H604.99L606.87 564.539ZM614.26 567.137C613.207 567.137 612.353 566.806 611.696 566.146C611.045 565.48 610.719 564.596 610.719 563.493V563.288C610.719 562.55 610.86 561.891 611.143 561.312C611.43 560.729 611.831 560.276 612.346 559.952C612.861 559.629 613.435 559.467 614.068 559.467C615.076 559.467 615.853 559.788 616.399 560.431C616.951 561.073 617.227 561.982 617.227 563.158V563.828H612.394C612.444 564.439 612.646 564.922 613.002 565.277C613.362 565.633 613.813 565.811 614.355 565.811C615.117 565.811 615.736 565.503 616.215 564.888L617.11 565.742C616.814 566.184 616.418 566.528 615.921 566.774C615.429 567.016 614.875 567.137 614.26 567.137ZM614.062 560.8C613.606 560.8 613.237 560.959 612.954 561.278C612.676 561.597 612.498 562.042 612.421 562.611H615.586V562.488C615.549 561.932 615.401 561.513 615.142 561.23C614.882 560.943 614.522 560.8 614.062 560.8ZM621.779 567.137C620.727 567.137 619.872 566.806 619.216 566.146C618.564 565.48 618.238 564.596 618.238 563.493V563.288C618.238 562.55 618.38 561.891 618.662 561.312C618.949 560.729 619.35 560.276 619.865 559.952C620.38 559.629 620.954 559.467 621.588 559.467C622.595 559.467 623.372 559.788 623.919 560.431C624.47 561.073 624.746 561.982 624.746 563.158V563.828H619.913C619.963 564.439 620.166 564.922 620.521 565.277C620.882 565.633 621.333 565.811 621.875 565.811C622.636 565.811 623.256 565.503 623.734 564.888L624.63 565.742C624.334 566.184 623.937 566.528 623.44 566.774C622.948 567.016 622.395 567.137 621.779 567.137ZM621.581 560.8C621.125 560.8 620.756 560.959 620.474 561.278C620.196 561.597 620.018 562.042 619.94 562.611H623.105V562.488C623.069 561.932 622.921 561.513 622.661 561.23C622.401 560.943 622.041 560.8 621.581 560.8ZM628.444 563.828L627.706 564.587V567H626.045V556.5H627.706V562.557L628.226 561.907L630.27 559.604H632.266L629.518 562.687L632.56 567H630.639L628.444 563.828ZM638.657 561.265H639.669C640.179 561.26 640.583 561.128 640.879 560.868C641.18 560.608 641.33 560.232 641.33 559.74C641.33 559.266 641.205 558.899 640.954 558.64C640.708 558.375 640.33 558.243 639.819 558.243C639.373 558.243 639.006 558.373 638.719 558.633C638.432 558.888 638.288 559.223 638.288 559.638H636.627C636.627 559.127 636.761 558.662 637.03 558.243C637.304 557.824 637.682 557.498 638.165 557.266C638.653 557.029 639.197 556.91 639.799 556.91C640.792 556.91 641.572 557.161 642.137 557.662C642.706 558.159 642.991 558.852 642.991 559.74C642.991 560.187 642.848 560.608 642.561 561.005C642.278 561.397 641.911 561.693 641.46 561.894C642.007 562.08 642.422 562.374 642.704 562.775C642.991 563.176 643.135 563.655 643.135 564.211C643.135 565.104 642.827 565.815 642.212 566.344C641.601 566.872 640.797 567.137 639.799 567.137C638.842 567.137 638.058 566.882 637.447 566.371C636.837 565.861 636.531 565.182 636.531 564.334H638.192C638.192 564.771 638.338 565.127 638.63 565.4C638.926 565.674 639.323 565.811 639.819 565.811C640.334 565.811 640.74 565.674 641.036 565.4C641.332 565.127 641.48 564.73 641.48 564.211C641.48 563.687 641.326 563.284 641.016 563.001C640.706 562.718 640.245 562.577 639.635 562.577H638.657V561.265Z" fill="#42427D"/>
<path d="M799.87 564.539L801.401 557.047H803.117L800.82 567H799.166L797.272 559.733L795.338 567H793.677L791.38 557.047H793.096L794.641 564.525L796.541 557.047H797.99L799.87 564.539ZM807.26 567.137C806.207 567.137 805.353 566.806 804.696 566.146C804.045 565.48 803.719 564.596 803.719 563.493V563.288C803.719 562.55 803.86 561.891 804.143 561.312C804.43 560.729 804.831 560.276 805.346 559.952C805.861 559.629 806.435 559.467 807.068 559.467C808.076 559.467 808.853 559.788 809.399 560.431C809.951 561.073 810.227 561.982 810.227 563.158V563.828H805.394C805.444 564.439 805.646 564.922 806.002 565.277C806.362 565.633 806.813 565.811 807.355 565.811C808.117 565.811 808.736 565.503 809.215 564.888L810.11 565.742C809.814 566.184 809.418 566.528 808.921 566.774C808.429 567.016 807.875 567.137 807.26 567.137ZM807.062 560.8C806.606 560.8 806.237 560.959 805.954 561.278C805.676 561.597 805.498 562.042 805.421 562.611H808.586V562.488C808.549 561.932 808.401 561.513 808.142 561.23C807.882 560.943 807.522 560.8 807.062 560.8ZM814.779 567.137C813.727 567.137 812.872 566.806 812.216 566.146C811.564 565.48 811.238 564.596 811.238 563.493V563.288C811.238 562.55 811.38 561.891 811.662 561.312C811.949 560.729 812.35 560.276 812.865 559.952C813.38 559.629 813.954 559.467 814.588 559.467C815.595 559.467 816.372 559.788 816.919 560.431C817.47 561.073 817.746 561.982 817.746 563.158V563.828H812.913C812.963 564.439 813.166 564.922 813.521 565.277C813.882 565.633 814.333 565.811 814.875 565.811C815.636 565.811 816.256 565.503 816.734 564.888L817.63 565.742C817.334 566.184 816.937 566.528 816.44 566.774C815.948 567.016 815.395 567.137 814.779 567.137ZM814.581 560.8C814.125 560.8 813.756 560.959 813.474 561.278C813.196 561.597 813.018 562.042 812.94 562.611H816.105V562.488C816.069 561.932 815.921 561.513 815.661 561.23C815.401 560.943 815.041 560.8 814.581 560.8ZM821.444 563.828L820.706 564.587V567H819.045V556.5H820.706V562.557L821.226 561.907L823.27 559.604H825.266L822.518 562.687L825.56 567H823.639L821.444 563.828ZM835.355 563.452H836.593V564.785H835.355V567H833.694V564.785H829.395L829.347 563.773L833.64 557.047H835.355V563.452ZM831.09 563.452H833.694V559.296L833.571 559.515L831.09 563.452Z" fill="#42427D"/>
<path d="M32.2754 547.81C32.2754 549.241 32.0065 550.321 31.4688 551.05C30.9355 551.774 30.1221 552.137 29.0283 552.137C27.9528 552.137 27.1416 551.784 26.5947 551.077C26.0524 550.366 25.7744 549.316 25.7607 547.926V546.203C25.7607 544.772 26.0273 543.699 26.5605 542.983C27.0983 542.268 27.9163 541.91 29.0146 541.91C30.1038 541.91 30.915 542.259 31.4482 542.956C31.986 543.653 32.2617 544.697 32.2754 546.087V547.81ZM30.6143 545.95C30.6143 545.016 30.4867 544.332 30.2314 543.899C29.9762 543.462 29.5706 543.243 29.0146 543.243C28.4723 543.243 28.0736 543.451 27.8184 543.865C27.5632 544.275 27.4287 544.918 27.415 545.793V548.049C27.415 548.979 27.5449 549.671 27.8047 550.127C28.0645 550.583 28.4723 550.811 29.0283 550.811C29.5615 550.811 29.9557 550.601 30.2109 550.182C30.4661 549.758 30.6006 549.097 30.6143 548.199V545.95Z" fill="#42427D"/>
<path d="M24.5234 459H17.8311V457.858L21.1465 454.242C21.625 453.709 21.9645 453.265 22.165 452.909C22.3701 452.549 22.4727 452.189 22.4727 451.829C22.4727 451.355 22.3382 450.972 22.0693 450.681C21.805 450.389 21.4473 450.243 20.9961 450.243C20.4583 450.243 20.0413 450.407 19.7451 450.735C19.4489 451.063 19.3008 451.512 19.3008 452.082H17.6396C17.6396 451.476 17.7764 450.931 18.0498 450.448C18.3278 449.961 18.722 449.582 19.2324 449.313C19.7474 449.045 20.3398 448.91 21.0098 448.91C21.9759 448.91 22.737 449.154 23.293 449.642C23.8535 450.125 24.1338 450.795 24.1338 451.651C24.1338 452.148 23.9925 452.67 23.71 453.217C23.432 453.759 22.974 454.377 22.3359 455.069L19.9023 457.674H24.5234V459ZM32.2754 454.81C32.2754 456.241 32.0065 457.321 31.4688 458.05C30.9355 458.774 30.1221 459.137 29.0283 459.137C27.9528 459.137 27.1416 458.784 26.5947 458.077C26.0524 457.366 25.7744 456.316 25.7607 454.926V453.203C25.7607 451.772 26.0273 450.699 26.5605 449.983C27.0983 449.268 27.9163 448.91 29.0146 448.91C30.1038 448.91 30.915 449.259 31.4482 449.956C31.986 450.653 32.2617 451.697 32.2754 453.087V454.81ZM30.6143 452.95C30.6143 452.016 30.4867 451.332 30.2314 450.899C29.9762 450.462 29.5706 450.243 29.0146 450.243C28.4723 450.243 28.0736 450.451 27.8184 450.865C27.5632 451.275 27.4287 451.918 27.415 452.793V455.049C27.415 455.979 27.5449 456.671 27.8047 457.127C28.0645 457.583 28.4723 457.811 29.0283 457.811C29.5615 457.811 29.9557 457.601 30.2109 457.182C30.4661 456.758 30.6006 456.097 30.6143 455.199V452.95Z" fill="#42427D"/>
<path d="M23.4502 362.452H24.6875V363.785H23.4502V366H21.7891V363.785H17.4893L17.4414 362.773L21.7344 356.047H23.4502V362.452ZM19.1846 362.452H21.7891V358.296L21.666 358.515L19.1846 362.452ZM32.2754 361.81C32.2754 363.241 32.0065 364.321 31.4688 365.05C30.9355 365.774 30.1221 366.137 29.0283 366.137C27.9528 366.137 27.1416 365.784 26.5947 365.077C26.0524 364.366 25.7744 363.316 25.7607 361.926V360.203C25.7607 358.772 26.0273 357.699 26.5605 356.983C27.0983 356.268 27.9163 355.91 29.0146 355.91C30.1038 355.91 30.915 356.259 31.4482 356.956C31.986 357.653 32.2617 358.697 32.2754 360.087V361.81ZM30.6143 359.95C30.6143 359.016 30.4867 358.332 30.2314 357.899C29.9762 357.462 29.5706 357.243 29.0146 357.243C28.4723 357.243 28.0736 357.451 27.8184 357.865C27.5632 358.275 27.4287 358.918 27.415 359.793V362.049C27.415 362.979 27.5449 363.671 27.8047 364.127C28.0645 364.583 28.4723 364.811 29.0283 364.811C29.5615 364.811 29.9557 364.601 30.2109 364.182C30.4661 363.758 30.6006 363.097 30.6143 362.199V359.95Z" fill="#42427D"/>
<path d="M22.999 263.999V265.373H22.7939C21.8643 265.387 21.1214 265.642 20.5654 266.139C20.0094 266.635 19.679 267.34 19.5742 268.251C20.1074 267.69 20.7887 267.41 21.6182 267.41C22.4977 267.41 23.1904 267.72 23.6963 268.34C24.2067 268.96 24.4619 269.759 24.4619 270.739C24.4619 271.751 24.1634 272.571 23.5664 273.2C22.974 273.825 22.1947 274.137 21.2285 274.137C20.235 274.137 19.4284 273.77 18.8086 273.036C18.1934 272.302 17.8857 271.341 17.8857 270.151V269.584C17.8857 267.839 18.3096 266.471 19.1572 265.482C20.0094 264.493 21.2331 263.999 22.8281 263.999H22.999ZM21.2148 268.75C20.8503 268.75 20.5153 268.853 20.21 269.058C19.9092 269.263 19.6882 269.536 19.5469 269.878V270.384C19.5469 271.122 19.7018 271.71 20.0117 272.147C20.3216 272.58 20.7227 272.797 21.2148 272.797C21.707 272.797 22.0967 272.612 22.3838 272.243C22.6709 271.874 22.8145 271.389 22.8145 270.787C22.8145 270.186 22.6686 269.696 22.377 269.317C22.0853 268.939 21.6979 268.75 21.2148 268.75ZM32.2754 269.81C32.2754 271.241 32.0065 272.321 31.4688 273.05C30.9355 273.774 30.1221 274.137 29.0283 274.137C27.9528 274.137 27.1416 273.784 26.5947 273.077C26.0524 272.366 25.7744 271.316 25.7607 269.926V268.203C25.7607 266.772 26.0273 265.699 26.5605 264.983C27.0983 264.268 27.9163 263.91 29.0146 263.91C30.1038 263.91 30.915 264.259 31.4482 264.956C31.986 265.653 32.2617 266.697 32.2754 268.087V269.81ZM30.6143 267.95C30.6143 267.016 30.4867 266.332 30.2314 265.899C29.9762 265.462 29.5706 265.243 29.0146 265.243C28.4723 265.243 28.0736 265.451 27.8184 265.865C27.5632 266.275 27.4287 266.918 27.415 267.793V270.049C27.415 270.979 27.5449 271.671 27.8047 272.127C28.0645 272.583 28.4723 272.811 29.0283 272.811C29.5615 272.811 29.9557 272.601 30.2109 272.182C30.4661 271.758 30.6006 271.097 30.6143 270.199V267.95Z" fill="#42427D"/>
<path d="M24.0996 173.672C24.0996 174.16 23.9743 174.595 23.7236 174.978C23.473 175.356 23.1312 175.654 22.6982 175.873C23.2178 176.115 23.6165 176.445 23.8945 176.864C24.1771 177.284 24.3184 177.757 24.3184 178.286C24.3184 179.161 24.0221 179.856 23.4297 180.371C22.8372 180.882 22.0488 181.137 21.0645 181.137C20.0755 181.137 19.2826 180.879 18.6855 180.364C18.0931 179.849 17.7969 179.157 17.7969 178.286C17.7969 177.753 17.9382 177.274 18.2207 176.851C18.5033 176.427 18.8997 176.101 19.4102 175.873C18.9818 175.654 18.6423 175.356 18.3916 174.978C18.1455 174.595 18.0225 174.16 18.0225 173.672C18.0225 172.824 18.2959 172.152 18.8428 171.655C19.3896 171.159 20.1279 170.91 21.0576 170.91C21.9919 170.91 22.7324 171.159 23.2793 171.655C23.8262 172.152 24.0996 172.824 24.0996 173.672ZM22.6572 178.204C22.6572 177.712 22.5091 177.315 22.2129 177.015C21.9212 176.709 21.5339 176.557 21.0508 176.557C20.5677 176.557 20.1803 176.707 19.8887 177.008C19.6016 177.309 19.458 177.707 19.458 178.204C19.458 178.692 19.5993 179.081 19.8818 179.373C20.1689 179.665 20.5632 179.811 21.0645 179.811C21.5658 179.811 21.9554 179.669 22.2334 179.387C22.516 179.104 22.6572 178.71 22.6572 178.204ZM22.4453 173.733C22.4453 173.3 22.32 172.945 22.0693 172.667C21.8187 172.384 21.4814 172.243 21.0576 172.243C20.6338 172.243 20.2988 172.378 20.0527 172.646C19.8066 172.911 19.6836 173.273 19.6836 173.733C19.6836 174.189 19.8066 174.551 20.0527 174.82C20.3034 175.089 20.6406 175.224 21.0645 175.224C21.4883 175.224 21.8232 175.089 22.0693 174.82C22.32 174.551 22.4453 174.189 22.4453 173.733ZM32.2754 176.81C32.2754 178.241 32.0065 179.321 31.4688 180.05C30.9355 180.774 30.1221 181.137 29.0283 181.137C27.9528 181.137 27.1416 180.784 26.5947 180.077C26.0524 179.366 25.7744 178.316 25.7607 176.926V175.203C25.7607 173.772 26.0273 172.699 26.5605 171.983C27.0983 171.268 27.9163 170.91 29.0146 170.91C30.1038 170.91 30.915 171.259 31.4482 171.956C31.986 172.653 32.2617 173.697 32.2754 175.087V176.81ZM30.6143 174.95C30.6143 174.016 30.4867 173.332 30.2314 172.899C29.9762 172.462 29.5706 172.243 29.0146 172.243C28.4723 172.243 28.0736 172.451 27.8184 172.865C27.5632 173.275 27.4287 173.918 27.415 174.793V177.049C27.415 177.979 27.5449 178.671 27.8047 179.127C28.0645 179.583 28.4723 179.811 29.0283 179.811C29.5615 179.811 29.9557 179.601 30.2109 179.182C30.4661 178.758 30.6006 178.097 30.6143 177.199V174.95Z" fill="#42427D"/>
<path d="M14.3721 89H12.7178V81.0088L10.2773 81.8428V80.4414L14.1602 79.0127H14.3721V89ZM24.3184 84.8096C24.3184 86.2406 24.0495 87.3206 23.5117 88.0498C22.9785 88.7744 22.165 89.1367 21.0713 89.1367C19.9958 89.1367 19.1846 88.7835 18.6377 88.0771C18.0954 87.3662 17.8174 86.3158 17.8037 84.9258V83.2031C17.8037 81.7721 18.0703 80.6989 18.6035 79.9834C19.1413 79.2679 19.9593 78.9102 21.0576 78.9102C22.1468 78.9102 22.958 79.2588 23.4912 79.9561C24.029 80.6533 24.3047 81.6969 24.3184 83.0869V84.8096ZM22.6572 82.9502C22.6572 82.016 22.5296 81.3324 22.2744 80.8994C22.0192 80.4619 21.6136 80.2432 21.0576 80.2432C20.5153 80.2432 20.1165 80.4505 19.8613 80.8652C19.6061 81.2754 19.4717 81.918 19.458 82.793V85.0488C19.458 85.9785 19.5879 86.6712 19.8477 87.127C20.1074 87.5827 20.5153 87.8105 21.0713 87.8105C21.6045 87.8105 21.9987 87.6009 22.2539 87.1816C22.5091 86.7578 22.6436 86.097 22.6572 85.1992V82.9502ZM32.2754 84.8096C32.2754 86.2406 32.0065 87.3206 31.4688 88.0498C30.9355 88.7744 30.1221 89.1367 29.0283 89.1367C27.9528 89.1367 27.1416 88.7835 26.5947 88.0771C26.0524 87.3662 25.7744 86.3158 25.7607 84.9258V83.2031C25.7607 81.7721 26.0273 80.6989 26.5605 79.9834C27.0983 79.2679 27.9163 78.9102 29.0146 78.9102C30.1038 78.9102 30.915 79.2588 31.4482 79.9561C31.986 80.6533 32.2617 81.6969 32.2754 83.0869V84.8096ZM30.6143 82.9502C30.6143 82.016 30.4867 81.3324 30.2314 80.8994C29.9762 80.4619 29.5706 80.2432 29.0146 80.2432C28.4723 80.2432 28.0736 80.4505 27.8184 80.8652C27.5632 81.2754 27.4287 81.918 27.415 82.793V85.0488C27.415 85.9785 27.5449 86.6712 27.8047 87.127C28.0645 87.5827 28.4723 87.8105 29.0283 87.8105C29.5615 87.8105 29.9557 87.6009 30.2109 87.1816C30.4661 86.7578 30.6006 86.097 30.6143 85.1992V82.9502Z" fill="#42427D"/>
<g clip-path="url(#clip0)">
<g filter="url(#filter0_i)">
<path d="M235 384C139 384 43 454 43 454V547H813V121C813 121 716 227 620 227C524 227 524 301 428 301C331 301 331 384 235 384Z" fill="white"/>
</g>
</g>
<path d="M43 84V547" stroke="#F3F6FF"/>
<path d="M43 547H813" stroke="#F3F6FF"/>
<path d="M43 454H813" stroke="#F3F6FF"/>
<path d="M43 361H813" stroke="#F3F6FF"/>
<path d="M43 269H813" stroke="#F3F6FF"/>
<path d="M43 176H813" stroke="#F3F6FF"/>
<path d="M43 84H813" stroke="#F3F6FF"/>
<path d="M43 496C43 496 139 412 235 412C331 412 331 357 428 357C524 357 524 264 620 264C716 264 813 171 813 171" stroke="#C7FFC9" stroke-width="4"/>
<path d="M44 454C44 454 140 384 236 384C332 384 332 301 429 301C525 301 525 227 621 227C717 227 814 121 814 121" stroke="#ED1B1B" stroke-opacity="0.12" stroke-width="4"/>
<circle cx="44" cy="453" r="6" fill="#42427D" stroke="white" stroke-width="4"/>
<circle cx="239" cy="383" r="6" fill="#42427D" stroke="white" stroke-width="4"/>
<circle cx="428" cy="300.758" r="10" fill="#42427D" stroke="white" stroke-width="4"/>
<circle cx="617" cy="226.502" r="6" fill="#42427D" stroke="white" stroke-width="4"/>
<circle cx="813" cy="123" r="6" fill="#42427D" stroke="white" stroke-width="4"/>
<circle cx="44" cy="493" r="6" fill="#42427D" stroke="white" stroke-width="4"/>
<circle cx="239" cy="411" r="6" fill="#42427D" stroke="white" stroke-width="4"/>
<circle cx="428" cy="357" r="6" fill="#42427D" stroke="white" stroke-width="4"/>
<circle cx="617" cy="263" r="6" fill="#42427D" stroke="white" stroke-width="4"/>
<circle cx="813" cy="173" r="6" fill="#42427D" stroke="white" stroke-width="4"/>
<path d="M372.719 225.773H368.285V238H365.834V225.773H361.439V223.781H372.719V225.773ZM383.178 234.729L384.857 227.434H387.172L384.291 238H382.338L380.072 230.744L377.846 238H375.893L373.002 227.434H375.316L377.025 234.65L379.193 227.434H380.98L383.178 234.729ZM391.283 238H388.91V227.434H391.283V238ZM388.764 224.689C388.764 224.325 388.878 224.022 389.105 223.781C389.34 223.54 389.672 223.42 390.102 223.42C390.531 223.42 390.863 223.54 391.098 223.781C391.332 224.022 391.449 224.325 391.449 224.689C391.449 225.048 391.332 225.347 391.098 225.588C390.863 225.822 390.531 225.939 390.102 225.939C389.672 225.939 389.34 225.822 389.105 225.588C388.878 225.347 388.764 225.048 388.764 224.689ZM396.85 224.865V227.434H398.715V229.191H396.85V235.09C396.85 235.493 396.928 235.786 397.084 235.969C397.247 236.145 397.533 236.232 397.943 236.232C398.217 236.232 398.493 236.2 398.773 236.135V237.971C398.233 238.12 397.712 238.195 397.211 238.195C395.388 238.195 394.477 237.189 394.477 235.178V229.191H392.738V227.434H394.477V224.865H396.85ZM403.51 224.865V227.434H405.375V229.191H403.51V235.09C403.51 235.493 403.588 235.786 403.744 235.969C403.907 236.145 404.193 236.232 404.604 236.232C404.877 236.232 405.154 236.2 405.434 236.135V237.971C404.893 238.12 404.372 238.195 403.871 238.195C402.048 238.195 401.137 237.189 401.137 235.178V229.191H399.398V227.434H401.137V224.865H403.51ZM411.85 238.195C410.346 238.195 409.125 237.723 408.188 236.779C407.257 235.829 406.791 234.566 406.791 232.99V232.697C406.791 231.643 406.993 230.702 407.396 229.875C407.807 229.042 408.38 228.394 409.115 227.932C409.851 227.469 410.671 227.238 411.576 227.238C413.015 227.238 414.125 227.697 414.906 228.615C415.694 229.533 416.088 230.832 416.088 232.512V233.469H409.184C409.255 234.341 409.545 235.031 410.053 235.539C410.567 236.047 411.212 236.301 411.986 236.301C413.074 236.301 413.959 235.861 414.643 234.982L415.922 236.203C415.499 236.835 414.932 237.326 414.223 237.678C413.52 238.023 412.729 238.195 411.85 238.195ZM411.566 229.143C410.915 229.143 410.388 229.37 409.984 229.826C409.587 230.282 409.333 230.917 409.223 231.73H413.744V231.555C413.692 230.76 413.48 230.161 413.109 229.758C412.738 229.348 412.224 229.143 411.566 229.143ZM423.471 229.602C423.158 229.549 422.836 229.523 422.504 229.523C421.417 229.523 420.684 229.94 420.307 230.773V238H417.934V227.434H420.199L420.258 228.615C420.831 227.697 421.625 227.238 422.641 227.238C422.979 227.238 423.259 227.284 423.48 227.375L423.471 229.602ZM429.984 232.219C429.984 230.715 430.186 229.289 430.59 227.941C430.993 226.587 431.586 225.38 432.367 224.318C433.148 223.251 433.975 222.502 434.848 222.072L435.316 223.459C434.398 224.156 433.653 225.22 433.08 226.652C432.514 228.078 432.204 229.712 432.152 231.555L432.143 232.395C432.143 234.367 432.419 236.128 432.973 237.678C433.533 239.221 434.314 240.396 435.316 241.203L434.848 242.521C433.975 242.092 433.145 241.34 432.357 240.266C431.576 239.198 430.984 237.993 430.58 236.652C430.183 235.305 429.984 233.827 429.984 232.219ZM439.516 229.807H440.961C441.69 229.8 442.266 229.611 442.689 229.24C443.119 228.869 443.334 228.332 443.334 227.629C443.334 226.952 443.155 226.428 442.797 226.057C442.445 225.679 441.905 225.49 441.176 225.49C440.538 225.49 440.014 225.676 439.604 226.047C439.193 226.411 438.988 226.89 438.988 227.482H436.615C436.615 226.753 436.807 226.089 437.191 225.49C437.582 224.891 438.122 224.426 438.812 224.094C439.509 223.755 440.287 223.586 441.146 223.586C442.566 223.586 443.679 223.944 444.486 224.66C445.3 225.37 445.707 226.359 445.707 227.629C445.707 228.267 445.502 228.869 445.092 229.436C444.688 229.995 444.164 230.419 443.52 230.705C444.301 230.972 444.893 231.392 445.297 231.965C445.707 232.538 445.912 233.221 445.912 234.016C445.912 235.292 445.473 236.307 444.594 237.062C443.721 237.818 442.572 238.195 441.146 238.195C439.779 238.195 438.66 237.831 437.787 237.102C436.915 236.372 436.479 235.402 436.479 234.191H438.852C438.852 234.816 439.06 235.324 439.477 235.715C439.9 236.105 440.466 236.301 441.176 236.301C441.911 236.301 442.491 236.105 442.914 235.715C443.337 235.324 443.549 234.758 443.549 234.016C443.549 233.267 443.327 232.691 442.885 232.287C442.442 231.883 441.785 231.682 440.912 231.682H439.516V229.807ZM448.773 230.949L449.545 223.781H457.182V225.832H451.518L451.127 229.23C451.785 228.853 452.527 228.664 453.354 228.664C454.708 228.664 455.759 229.097 456.508 229.963C457.263 230.829 457.641 231.994 457.641 233.459C457.641 234.904 457.224 236.057 456.391 236.916C455.557 237.769 454.415 238.195 452.963 238.195C451.661 238.195 450.58 237.827 449.721 237.092C448.868 236.35 448.406 235.373 448.334 234.162H450.629C450.72 234.852 450.967 235.383 451.371 235.754C451.775 236.118 452.302 236.301 452.953 236.301C453.682 236.301 454.249 236.04 454.652 235.52C455.062 234.999 455.268 234.289 455.268 233.391C455.268 232.525 455.043 231.841 454.594 231.34C454.145 230.832 453.526 230.578 452.738 230.578C452.309 230.578 451.944 230.637 451.645 230.754C451.345 230.865 451.02 231.086 450.668 231.418L448.773 230.949ZM462.25 229.807H463.695C464.424 229.8 465.001 229.611 465.424 229.24C465.854 228.869 466.068 228.332 466.068 227.629C466.068 226.952 465.889 226.428 465.531 226.057C465.18 225.679 464.639 225.49 463.91 225.49C463.272 225.49 462.748 225.676 462.338 226.047C461.928 226.411 461.723 226.89 461.723 227.482H459.35C459.35 226.753 459.542 226.089 459.926 225.49C460.316 224.891 460.857 224.426 461.547 224.094C462.243 223.755 463.021 223.586 463.881 223.586C465.3 223.586 466.413 223.944 467.221 224.66C468.035 225.37 468.441 226.359 468.441 227.629C468.441 228.267 468.236 228.869 467.826 229.436C467.423 229.995 466.898 230.419 466.254 230.705C467.035 230.972 467.628 231.392 468.031 231.965C468.441 232.538 468.646 233.221 468.646 234.016C468.646 235.292 468.207 236.307 467.328 237.062C466.456 237.818 465.307 238.195 463.881 238.195C462.514 238.195 461.394 237.831 460.521 237.102C459.649 236.372 459.213 235.402 459.213 234.191H461.586C461.586 234.816 461.794 235.324 462.211 235.715C462.634 236.105 463.201 236.301 463.91 236.301C464.646 236.301 465.225 236.105 465.648 235.715C466.072 235.324 466.283 234.758 466.283 234.016C466.283 233.267 466.062 232.691 465.619 232.287C465.176 231.883 464.519 231.682 463.646 231.682H462.25V229.807ZM480.336 225.1L474.652 238H472.162L477.836 225.686H470.482V223.781H480.336V225.1ZM491.947 232.375C491.947 233.82 491.749 235.217 491.352 236.564C490.954 237.906 490.352 239.126 489.545 240.227C488.738 241.333 487.895 242.098 487.016 242.521L486.547 241.203C487.523 240.448 488.295 239.296 488.861 237.746C489.434 236.19 489.721 234.416 489.721 232.424V232.199C489.721 230.389 489.473 228.742 488.979 227.258C488.484 225.767 487.774 224.572 486.85 223.674L486.547 223.4L487.016 222.072C487.849 222.476 488.656 223.192 489.438 224.221C490.219 225.249 490.818 226.402 491.234 227.678C491.651 228.947 491.885 230.259 491.938 231.613L491.947 232.375Z" fill="black"/>
<path d="M176.053 360H173.592V345.781H176.053V360ZM181.062 349.434L181.131 350.654C181.912 349.71 182.938 349.238 184.207 349.238C186.408 349.238 187.527 350.498 187.566 353.018V360H185.193V353.154C185.193 352.484 185.047 351.989 184.754 351.67C184.467 351.344 183.995 351.182 183.338 351.182C182.381 351.182 181.668 351.615 181.199 352.48V360H178.826V349.434H181.062ZM195.916 357.129C195.916 356.706 195.74 356.383 195.389 356.162C195.044 355.941 194.467 355.745 193.66 355.576C192.853 355.407 192.179 355.192 191.639 354.932C190.454 354.359 189.861 353.529 189.861 352.441C189.861 351.53 190.245 350.768 191.014 350.156C191.782 349.544 192.758 349.238 193.943 349.238C195.206 349.238 196.225 349.551 197 350.176C197.781 350.801 198.172 351.611 198.172 352.607H195.799C195.799 352.152 195.63 351.774 195.291 351.475C194.952 351.169 194.503 351.016 193.943 351.016C193.423 351.016 192.996 351.136 192.664 351.377C192.339 351.618 192.176 351.94 192.176 352.344C192.176 352.708 192.329 352.992 192.635 353.193C192.941 353.395 193.559 353.6 194.49 353.809C195.421 354.01 196.15 354.255 196.678 354.541C197.212 354.821 197.605 355.16 197.859 355.557C198.12 355.954 198.25 356.436 198.25 357.002C198.25 357.952 197.856 358.724 197.068 359.316C196.281 359.902 195.249 360.195 193.973 360.195C193.107 360.195 192.335 360.039 191.658 359.727C190.981 359.414 190.454 358.984 190.076 358.438C189.699 357.891 189.51 357.301 189.51 356.67H191.814C191.847 357.23 192.059 357.663 192.449 357.969C192.84 358.268 193.357 358.418 194.002 358.418C194.627 358.418 195.102 358.301 195.428 358.066C195.753 357.826 195.916 357.513 195.916 357.129ZM203.299 346.865V349.434H205.164V351.191H203.299V357.09C203.299 357.493 203.377 357.786 203.533 357.969C203.696 358.145 203.982 358.232 204.393 358.232C204.666 358.232 204.943 358.2 205.223 358.135V359.971C204.682 360.12 204.161 360.195 203.66 360.195C201.837 360.195 200.926 359.189 200.926 357.178V351.191H199.188V349.434H200.926V346.865H203.299ZM213.299 360C213.195 359.798 213.104 359.469 213.025 359.014C212.27 359.801 211.346 360.195 210.252 360.195C209.191 360.195 208.325 359.893 207.654 359.287C206.984 358.682 206.648 357.933 206.648 357.041C206.648 355.915 207.065 355.052 207.898 354.453C208.738 353.848 209.936 353.545 211.492 353.545H212.947V352.852C212.947 352.305 212.794 351.868 212.488 351.543C212.182 351.211 211.717 351.045 211.092 351.045C210.551 351.045 210.109 351.182 209.764 351.455C209.419 351.722 209.246 352.064 209.246 352.48H206.873C206.873 351.901 207.065 351.361 207.449 350.859C207.833 350.352 208.354 349.954 209.012 349.668C209.676 349.382 210.415 349.238 211.229 349.238C212.465 349.238 213.452 349.551 214.188 350.176C214.923 350.794 215.301 351.667 215.32 352.793V357.559C215.32 358.509 215.454 359.268 215.721 359.834V360H213.299ZM210.691 358.291C211.16 358.291 211.6 358.177 212.01 357.949C212.426 357.721 212.739 357.415 212.947 357.031V355.039H211.668C210.789 355.039 210.128 355.192 209.686 355.498C209.243 355.804 209.021 356.237 209.021 356.797C209.021 357.253 209.171 357.617 209.471 357.891C209.777 358.158 210.184 358.291 210.691 358.291ZM217.391 354.639C217.391 352.998 217.775 351.689 218.543 350.713C219.318 349.73 220.343 349.238 221.619 349.238C222.824 349.238 223.771 349.658 224.461 350.498L224.568 349.434H226.707V359.678C226.707 361.064 226.274 362.158 225.408 362.959C224.549 363.76 223.387 364.16 221.922 364.16C221.147 364.16 220.389 363.997 219.646 363.672C218.911 363.353 218.351 362.933 217.967 362.412L219.09 360.986C219.819 361.852 220.717 362.285 221.785 362.285C222.573 362.285 223.195 362.07 223.65 361.641C224.106 361.217 224.334 360.592 224.334 359.766V359.053C223.65 359.814 222.739 360.195 221.6 360.195C220.363 360.195 219.35 359.704 218.562 358.721C217.781 357.738 217.391 356.377 217.391 354.639ZM219.754 354.844C219.754 355.905 219.969 356.742 220.398 357.354C220.835 357.959 221.437 358.262 222.205 358.262C223.162 358.262 223.872 357.852 224.334 357.031V352.383C223.885 351.582 223.182 351.182 222.225 351.182C221.443 351.182 220.835 351.491 220.398 352.109C219.969 352.728 219.754 353.639 219.754 354.844ZM234.686 351.602C234.373 351.549 234.051 351.523 233.719 351.523C232.632 351.523 231.899 351.94 231.521 352.773V360H229.148V349.434H231.414L231.473 350.615C232.046 349.697 232.84 349.238 233.855 349.238C234.194 349.238 234.474 349.284 234.695 349.375L234.686 351.602ZM242.205 360C242.101 359.798 242.01 359.469 241.932 359.014C241.176 359.801 240.252 360.195 239.158 360.195C238.097 360.195 237.231 359.893 236.561 359.287C235.89 358.682 235.555 357.933 235.555 357.041C235.555 355.915 235.971 355.052 236.805 354.453C237.645 353.848 238.842 353.545 240.398 353.545H241.854V352.852C241.854 352.305 241.701 351.868 241.395 351.543C241.089 351.211 240.623 351.045 239.998 351.045C239.458 351.045 239.015 351.182 238.67 351.455C238.325 351.722 238.152 352.064 238.152 352.48H235.779C235.779 351.901 235.971 351.361 236.355 350.859C236.74 350.352 237.26 349.954 237.918 349.668C238.582 349.382 239.321 349.238 240.135 349.238C241.372 349.238 242.358 349.551 243.094 350.176C243.829 350.794 244.207 351.667 244.227 352.793V357.559C244.227 358.509 244.36 359.268 244.627 359.834V360H242.205ZM239.598 358.291C240.066 358.291 240.506 358.177 240.916 357.949C241.333 357.721 241.645 357.415 241.854 357.031V355.039H240.574C239.695 355.039 239.035 355.192 238.592 355.498C238.149 355.804 237.928 356.237 237.928 356.797C237.928 357.253 238.077 357.617 238.377 357.891C238.683 358.158 239.09 358.291 239.598 358.291ZM248.943 349.434L249.012 350.537C249.754 349.671 250.77 349.238 252.059 349.238C253.471 349.238 254.438 349.779 254.959 350.859C255.727 349.779 256.808 349.238 258.201 349.238C259.367 349.238 260.232 349.561 260.799 350.205C261.372 350.85 261.665 351.8 261.678 353.057V360H259.305V353.125C259.305 352.454 259.158 351.963 258.865 351.65C258.572 351.338 258.087 351.182 257.41 351.182C256.87 351.182 256.427 351.328 256.082 351.621C255.743 351.908 255.506 352.285 255.369 352.754L255.379 360H253.006V353.047C252.973 351.803 252.339 351.182 251.102 351.182C250.151 351.182 249.477 351.569 249.08 352.344V360H246.707V349.434H248.943ZM269.129 354.219C269.129 352.715 269.331 351.289 269.734 349.941C270.138 348.587 270.73 347.38 271.512 346.318C272.293 345.251 273.12 344.502 273.992 344.072L274.461 345.459C273.543 346.156 272.798 347.22 272.225 348.652C271.658 350.078 271.349 351.712 271.297 353.555L271.287 354.395C271.287 356.367 271.564 358.128 272.117 359.678C272.677 361.221 273.458 362.396 274.461 363.203L273.992 364.521C273.12 364.092 272.29 363.34 271.502 362.266C270.721 361.198 270.128 359.993 269.725 358.652C269.327 357.305 269.129 355.827 269.129 354.219ZM283.943 354.932H285.711V356.836H283.943V360H281.57V356.836H275.428L275.359 355.391L281.492 345.781H283.943V354.932ZM277.85 354.932H281.57V348.994L281.395 349.307L277.85 354.932ZM290.027 351.807H291.473C292.202 351.8 292.778 351.611 293.201 351.24C293.631 350.869 293.846 350.332 293.846 349.629C293.846 348.952 293.667 348.428 293.309 348.057C292.957 347.679 292.417 347.49 291.688 347.49C291.049 347.49 290.525 347.676 290.115 348.047C289.705 348.411 289.5 348.89 289.5 349.482H287.127C287.127 348.753 287.319 348.089 287.703 347.49C288.094 346.891 288.634 346.426 289.324 346.094C290.021 345.755 290.799 345.586 291.658 345.586C293.077 345.586 294.191 345.944 294.998 346.66C295.812 347.37 296.219 348.359 296.219 349.629C296.219 350.267 296.014 350.869 295.604 351.436C295.2 351.995 294.676 352.419 294.031 352.705C294.812 352.972 295.405 353.392 295.809 353.965C296.219 354.538 296.424 355.221 296.424 356.016C296.424 357.292 295.984 358.307 295.105 359.062C294.233 359.818 293.084 360.195 291.658 360.195C290.291 360.195 289.171 359.831 288.299 359.102C287.426 358.372 286.99 357.402 286.99 356.191H289.363C289.363 356.816 289.572 357.324 289.988 357.715C290.411 358.105 290.978 358.301 291.688 358.301C292.423 358.301 293.003 358.105 293.426 357.715C293.849 357.324 294.061 356.758 294.061 356.016C294.061 355.267 293.839 354.691 293.396 354.287C292.954 353.883 292.296 353.682 291.424 353.682H290.027V351.807ZM301.395 351.807H302.84C303.569 351.8 304.145 351.611 304.568 351.24C304.998 350.869 305.213 350.332 305.213 349.629C305.213 348.952 305.034 348.428 304.676 348.057C304.324 347.679 303.784 347.49 303.055 347.49C302.417 347.49 301.893 347.676 301.482 348.047C301.072 348.411 300.867 348.89 300.867 349.482H298.494C298.494 348.753 298.686 348.089 299.07 347.49C299.461 346.891 300.001 346.426 300.691 346.094C301.388 345.755 302.166 345.586 303.025 345.586C304.445 345.586 305.558 345.944 306.365 346.66C307.179 347.37 307.586 348.359 307.586 349.629C307.586 350.267 307.381 350.869 306.971 351.436C306.567 351.995 306.043 352.419 305.398 352.705C306.18 352.972 306.772 353.392 307.176 353.965C307.586 354.538 307.791 355.221 307.791 356.016C307.791 357.292 307.352 358.307 306.473 359.062C305.6 359.818 304.451 360.195 303.025 360.195C301.658 360.195 300.538 359.831 299.666 359.102C298.794 358.372 298.357 357.402 298.357 356.191H300.73C300.73 356.816 300.939 357.324 301.355 357.715C301.779 358.105 302.345 358.301 303.055 358.301C303.79 358.301 304.37 358.105 304.793 357.715C305.216 357.324 305.428 356.758 305.428 356.016C305.428 355.267 305.206 354.691 304.764 354.287C304.321 353.883 303.663 353.682 302.791 353.682H301.395V351.807ZM319.725 354.375C319.725 355.82 319.526 357.217 319.129 358.564C318.732 359.906 318.13 361.126 317.322 362.227C316.515 363.333 315.672 364.098 314.793 364.521L314.324 363.203C315.301 362.448 316.072 361.296 316.639 359.746C317.212 358.19 317.498 356.416 317.498 354.424V354.199C317.498 352.389 317.251 350.742 316.756 349.258C316.261 347.767 315.551 346.572 314.627 345.674L314.324 345.4L314.793 344.072C315.626 344.476 316.434 345.192 317.215 346.221C317.996 347.249 318.595 348.402 319.012 349.678C319.428 350.947 319.663 352.259 319.715 353.613L319.725 354.375Z" fill="black"/>
<defs>
<filter id="filter0_i" x="-727" y="121" width="2310" height="715" filterUnits="userSpaceOnUse" color-interpolation-filters="sRGB">
<feFlood flood-opacity="0" result="BackgroundImageFix"/>
<feBlend mode="normal" in="SourceGraphic" in2="BackgroundImageFix" result="shape"/>
<feColorMatrix in="SourceAlpha" type="matrix" values="0 0 0 0 0 0 0 0 0 0 0 0 0 0 0 0 0 0 127 0" result="hardAlpha"/>
<feOffset dy="25"/>
<feGaussianBlur stdDeviation="75"/>
<feComposite in2="hardAlpha" operator="arithmetic" k2="-1" k3="1"/>
<feColorMatrix type="matrix" values="0 0 0 0 1 0 0 0 0 0.909804 0 0 0 0 0.941176 0 0 0 0.2 0"/>
<feBlend mode="normal" in2="shape" result="effect1_innerShadow"/>
</filter>
<clipPath id="clip0">
<rect width="770" height="426" fill="white" transform="translate(43 121)"/>
</clipPath>
</defs>
</svg>
