<svg width="467" height="265" viewBox="0 0 467 265" fill="none" xmlns="http://www.w3.org/2000/svg">
<path d="M448.703 261.437C448.703 260.999 448.548 260.662 448.238 260.425C447.933 260.188 447.379 259.949 446.577 259.707C445.775 259.465 445.137 259.197 444.663 258.9C443.756 258.331 443.303 257.588 443.303 256.672C443.303 255.87 443.629 255.209 444.28 254.689C444.937 254.17 445.786 253.91 446.83 253.91C447.523 253.91 448.14 254.038 448.683 254.293C449.225 254.548 449.651 254.913 449.961 255.387C450.271 255.856 450.426 256.378 450.426 256.952H448.703C448.703 256.433 448.539 256.027 448.211 255.735C447.887 255.439 447.423 255.291 446.816 255.291C446.251 255.291 445.812 255.412 445.497 255.653C445.187 255.895 445.032 256.232 445.032 256.665C445.032 257.03 445.201 257.335 445.538 257.581C445.875 257.823 446.431 258.06 447.206 258.292C447.981 258.52 448.603 258.782 449.072 259.078C449.542 259.37 449.886 259.707 450.104 260.09C450.323 260.468 450.433 260.912 450.433 261.423C450.433 262.252 450.114 262.913 449.476 263.405C448.842 263.893 447.981 264.137 446.892 264.137C446.172 264.137 445.508 264.005 444.902 263.74C444.301 263.471 443.831 263.102 443.494 262.633C443.161 262.163 442.995 261.617 442.995 260.992H444.725C444.725 261.557 444.911 261.995 445.285 262.305C445.659 262.615 446.194 262.77 446.892 262.77C447.493 262.77 447.944 262.649 448.245 262.407C448.55 262.161 448.703 261.838 448.703 261.437ZM456.271 263.275C455.783 263.85 455.09 264.137 454.192 264.137C453.39 264.137 452.782 263.902 452.367 263.433C451.957 262.963 451.752 262.284 451.752 261.396V256.604H453.413V261.375C453.413 262.314 453.803 262.783 454.582 262.783C455.389 262.783 455.933 262.494 456.216 261.915V256.604H457.877V264H456.312L456.271 263.275ZM461.11 256.604L461.158 257.458C461.705 256.797 462.423 256.467 463.312 256.467C464.852 256.467 465.636 257.349 465.663 259.112V264H464.002V259.208C464.002 258.739 463.899 258.392 463.694 258.169C463.494 257.941 463.163 257.827 462.703 257.827C462.033 257.827 461.534 258.13 461.206 258.736V264H459.545V256.604H461.11Z" fill="#A0AAC8"/>
<path d="M380.371 261.437C380.371 260.999 380.216 260.662 379.906 260.425C379.601 260.188 379.047 259.949 378.245 259.707C377.443 259.465 376.805 259.197 376.331 258.9C375.424 258.331 374.971 257.588 374.971 256.672C374.971 255.87 375.297 255.209 375.948 254.689C376.604 254.17 377.454 253.91 378.498 253.91C379.191 253.91 379.808 254.038 380.351 254.293C380.893 254.548 381.319 254.913 381.629 255.387C381.939 255.856 382.094 256.378 382.094 256.952H380.371C380.371 256.433 380.207 256.027 379.879 255.735C379.555 255.439 379.09 255.291 378.484 255.291C377.919 255.291 377.479 255.412 377.165 255.653C376.855 255.895 376.7 256.232 376.7 256.665C376.7 257.03 376.869 257.335 377.206 257.581C377.543 257.823 378.099 258.06 378.874 258.292C379.649 258.52 380.271 258.782 380.74 259.078C381.21 259.37 381.554 259.707 381.772 260.09C381.991 260.468 382.101 260.912 382.101 261.423C382.101 262.252 381.782 262.913 381.144 263.405C380.51 263.893 379.649 264.137 378.56 264.137C377.84 264.137 377.176 264.005 376.57 263.74C375.969 263.471 375.499 263.102 375.162 262.633C374.829 262.163 374.663 261.617 374.663 260.992H376.393C376.393 261.557 376.579 261.995 376.953 262.305C377.327 262.615 377.862 262.77 378.56 262.77C379.161 262.77 379.612 262.649 379.913 262.407C380.218 262.161 380.371 261.838 380.371 261.437ZM387.877 264C387.804 263.859 387.74 263.629 387.686 263.31C387.157 263.861 386.51 264.137 385.744 264.137C385.001 264.137 384.395 263.925 383.926 263.501C383.456 263.077 383.222 262.553 383.222 261.929C383.222 261.14 383.513 260.536 384.097 260.117C384.685 259.693 385.523 259.481 386.612 259.481H387.631V258.996C387.631 258.613 387.524 258.308 387.31 258.08C387.095 257.848 386.77 257.731 386.332 257.731C385.954 257.731 385.644 257.827 385.402 258.019C385.161 258.205 385.04 258.445 385.04 258.736H383.379C383.379 258.331 383.513 257.952 383.782 257.602C384.051 257.246 384.416 256.968 384.876 256.768C385.341 256.567 385.858 256.467 386.428 256.467C387.294 256.467 387.984 256.686 388.499 257.123C389.014 257.556 389.278 258.167 389.292 258.955V262.291C389.292 262.956 389.385 263.487 389.572 263.884V264H387.877ZM386.052 262.804C386.38 262.804 386.688 262.724 386.975 262.564C387.266 262.405 387.485 262.191 387.631 261.922V260.527H386.735C386.12 260.527 385.658 260.634 385.348 260.849C385.038 261.063 384.883 261.366 384.883 261.758C384.883 262.077 384.988 262.332 385.197 262.523C385.411 262.71 385.696 262.804 386.052 262.804ZM393.113 254.806V256.604H394.419V257.834H393.113V261.963C393.113 262.245 393.168 262.451 393.277 262.578C393.391 262.701 393.592 262.763 393.879 262.763C394.07 262.763 394.264 262.74 394.46 262.694V263.979C394.082 264.084 393.717 264.137 393.366 264.137C392.09 264.137 391.452 263.433 391.452 262.024V257.834H390.235V256.604H391.452V254.806H393.113Z" fill="#A0AAC8"/>
<path d="M314.235 259.782H310.229V264H308.5V254.047H314.823V255.441H310.229V258.401H314.235V259.782ZM319.731 258.121C319.513 258.085 319.287 258.066 319.055 258.066C318.294 258.066 317.781 258.358 317.517 258.941V264H315.855V256.604H317.441L317.482 257.431C317.883 256.788 318.439 256.467 319.15 256.467C319.387 256.467 319.583 256.499 319.738 256.562L319.731 258.121ZM322.548 264H320.887V256.604H322.548V264ZM320.784 254.683C320.784 254.427 320.864 254.215 321.023 254.047C321.188 253.878 321.42 253.794 321.721 253.794C322.021 253.794 322.254 253.878 322.418 254.047C322.582 254.215 322.664 254.427 322.664 254.683C322.664 254.933 322.582 255.143 322.418 255.312C322.254 255.476 322.021 255.558 321.721 255.558C321.42 255.558 321.188 255.476 321.023 255.312C320.864 255.143 320.784 254.933 320.784 254.683Z" fill="#A0AAC8"/>
<path d="M242.672 255.441H239.568V264H237.853V255.441H234.776V254.047H242.672V255.441ZM245.461 257.41C246.003 256.781 246.689 256.467 247.519 256.467C249.095 256.467 249.895 257.367 249.918 259.167V264H248.257V259.229C248.257 258.718 248.145 258.358 247.922 258.148C247.703 257.934 247.38 257.827 246.951 257.827C246.286 257.827 245.789 258.123 245.461 258.716V264H243.8V253.5H245.461V257.41ZM256.084 263.275C255.596 263.85 254.904 264.137 254.006 264.137C253.204 264.137 252.595 263.902 252.181 263.433C251.771 262.963 251.565 262.284 251.565 261.396V256.604H253.227V261.375C253.227 262.314 253.616 262.783 254.396 262.783C255.202 262.783 255.747 262.494 256.029 261.915V256.604H257.69V264H256.125L256.084 263.275Z" fill="#A0AAC8"/>
<path d="M171.058 261.539L172.589 254.047H174.305L172.008 264H170.354L168.46 256.733L166.525 264H164.864L162.567 254.047H164.283L165.828 261.525L167.729 254.047H169.178L171.058 261.539ZM178.447 264.137C177.395 264.137 176.54 263.806 175.884 263.146C175.232 262.48 174.906 261.596 174.906 260.493V260.288C174.906 259.55 175.048 258.891 175.33 258.312C175.617 257.729 176.018 257.276 176.533 256.952C177.048 256.629 177.622 256.467 178.256 256.467C179.263 256.467 180.04 256.788 180.587 257.431C181.138 258.073 181.414 258.982 181.414 260.158V260.828H176.581C176.631 261.439 176.834 261.922 177.189 262.277C177.549 262.633 178.001 262.811 178.543 262.811C179.304 262.811 179.924 262.503 180.402 261.888L181.298 262.742C181.002 263.184 180.605 263.528 180.108 263.774C179.616 264.016 179.062 264.137 178.447 264.137ZM178.249 257.8C177.793 257.8 177.424 257.959 177.142 258.278C176.864 258.597 176.686 259.042 176.608 259.611H179.773V259.488C179.737 258.932 179.589 258.513 179.329 258.23C179.069 257.943 178.709 257.8 178.249 257.8ZM182.398 260.247C182.398 259.108 182.663 258.194 183.191 257.506C183.72 256.813 184.429 256.467 185.317 256.467C186.101 256.467 186.735 256.74 187.218 257.287V253.5H188.879V264H187.375L187.293 263.234C186.796 263.836 186.133 264.137 185.304 264.137C184.438 264.137 183.736 263.788 183.198 263.091C182.665 262.394 182.398 261.446 182.398 260.247ZM184.06 260.391C184.06 261.143 184.203 261.73 184.49 262.154C184.782 262.574 185.194 262.783 185.728 262.783C186.407 262.783 186.903 262.48 187.218 261.874V258.716C186.912 258.123 186.42 257.827 185.741 257.827C185.203 257.827 184.789 258.041 184.497 258.47C184.205 258.894 184.06 259.534 184.06 260.391Z" fill="#A0AAC8"/>
<path d="M103.527 255.441H100.424V264H98.708V255.441H95.6318V254.047H103.527V255.441ZM108.709 263.275C108.221 263.85 107.529 264.137 106.631 264.137C105.829 264.137 105.22 263.902 104.806 263.433C104.396 262.963 104.19 262.284 104.19 261.396V256.604H105.852V261.375C105.852 262.314 106.241 262.783 107.021 262.783C107.827 262.783 108.372 262.494 108.654 261.915V256.604H110.315V264H108.75L108.709 263.275ZM115.265 264.137C114.212 264.137 113.357 263.806 112.701 263.146C112.049 262.48 111.724 261.596 111.724 260.493V260.288C111.724 259.55 111.865 258.891 112.147 258.312C112.435 257.729 112.836 257.276 113.351 256.952C113.866 256.629 114.44 256.467 115.073 256.467C116.08 256.467 116.857 256.788 117.404 257.431C117.956 258.073 118.231 258.982 118.231 260.158V260.828H113.398C113.449 261.439 113.651 261.922 114.007 262.277C114.367 262.633 114.818 262.811 115.36 262.811C116.121 262.811 116.741 262.503 117.22 261.888L118.115 262.742C117.819 263.184 117.423 263.528 116.926 263.774C116.434 264.016 115.88 264.137 115.265 264.137ZM115.066 257.8C114.611 257.8 114.242 257.959 113.959 258.278C113.681 258.597 113.503 259.042 113.426 259.611H116.591V259.488C116.554 258.932 116.406 258.513 116.146 258.23C115.887 257.943 115.527 257.8 115.066 257.8Z" fill="#A0AAC8"/>
<path d="M27.7402 254.047L30.6113 261.676L33.4756 254.047H35.7109V264H33.9883V260.719L34.1592 256.33L31.2197 264H29.9824L27.0498 256.337L27.2207 260.719V264H25.498V254.047H27.7402ZM37.29 260.233C37.29 259.509 37.4336 258.857 37.7207 258.278C38.0078 257.695 38.4111 257.248 38.9307 256.938C39.4502 256.624 40.0472 256.467 40.7217 256.467C41.7197 256.467 42.5286 256.788 43.1484 257.431C43.7728 258.073 44.11 258.925 44.1602 259.987L44.167 260.377C44.167 261.106 44.0257 261.758 43.7432 262.332C43.4652 262.906 43.0641 263.351 42.54 263.665C42.0205 263.979 41.4189 264.137 40.7354 264.137C39.6917 264.137 38.8555 263.79 38.2266 263.098C37.6022 262.4 37.29 261.473 37.29 260.315V260.233ZM38.9512 260.377C38.9512 261.138 39.1084 261.735 39.4229 262.168C39.7373 262.596 40.1748 262.811 40.7354 262.811C41.2959 262.811 41.7311 262.592 42.041 262.154C42.3555 261.717 42.5127 261.076 42.5127 260.233C42.5127 259.486 42.3509 258.894 42.0273 258.456C41.7083 258.019 41.2731 257.8 40.7217 257.8C40.1794 257.8 39.7487 258.016 39.4297 258.449C39.1107 258.878 38.9512 259.52 38.9512 260.377ZM47.1133 256.604L47.1611 257.458C47.708 256.797 48.4258 256.467 49.3145 256.467C50.8548 256.467 51.6387 257.349 51.666 259.112V264H50.0049V259.208C50.0049 258.739 49.9023 258.392 49.6973 258.169C49.4967 257.941 49.1663 257.827 48.7061 257.827C48.0361 257.827 47.5371 258.13 47.209 258.736V264H45.5479V256.604H47.1133Z" fill="#A0AAC8"/>
<path d="M10.6914 169H3.99902V167.858L7.31445 164.242C7.79297 163.709 8.13249 163.265 8.33301 162.909C8.53809 162.549 8.64062 162.189 8.64062 161.829C8.64062 161.355 8.50618 160.972 8.2373 160.681C7.97298 160.389 7.61523 160.243 7.16406 160.243C6.6263 160.243 6.20931 160.407 5.91309 160.735C5.61686 161.063 5.46875 161.512 5.46875 162.082H3.80762C3.80762 161.476 3.94434 160.931 4.21777 160.448C4.49577 159.961 4.88997 159.582 5.40039 159.313C5.91536 159.045 6.50781 158.91 7.17773 158.91C8.14388 158.91 8.90495 159.154 9.46094 159.642C10.0215 160.125 10.3018 160.795 10.3018 161.651C10.3018 162.148 10.1605 162.67 9.87793 163.217C9.59993 163.759 9.14193 164.377 8.50391 165.069L6.07031 167.674H10.6914V169ZM12.4004 164.064L12.9404 159.047H18.2861V160.482H14.3213L14.0479 162.861C14.5081 162.597 15.0277 162.465 15.6064 162.465C16.5544 162.465 17.2904 162.768 17.8145 163.374C18.3431 163.98 18.6074 164.796 18.6074 165.821C18.6074 166.833 18.3158 167.64 17.7324 168.241C17.1491 168.838 16.3493 169.137 15.333 169.137C14.4215 169.137 13.665 168.879 13.0635 168.364C12.4665 167.845 12.1429 167.161 12.0928 166.313H13.6992C13.763 166.797 13.9362 167.168 14.2188 167.428C14.5013 167.683 14.8704 167.811 15.3262 167.811C15.8366 167.811 16.2331 167.628 16.5156 167.264C16.8027 166.899 16.9463 166.402 16.9463 165.773C16.9463 165.167 16.7891 164.689 16.4746 164.338C16.1602 163.982 15.7272 163.805 15.1758 163.805C14.875 163.805 14.6198 163.846 14.4102 163.928C14.2005 164.005 13.9727 164.16 13.7266 164.393L12.4004 164.064ZM23.0371 164.7L21.9092 165.896V169H20.1797V159.047H21.9092V163.716L22.8662 162.533L25.7783 159.047H27.8701L24.1719 163.456L28.082 169H26.0312L23.0371 164.7Z" fill="#A0AAC8"/>
<path d="M4.44336 85.0645L4.9834 80.0469H10.3291V81.4824H6.36426L6.09082 83.8613C6.55111 83.597 7.07064 83.4648 7.64941 83.4648C8.59733 83.4648 9.33333 83.7679 9.85742 84.374C10.3861 84.9801 10.6504 85.7959 10.6504 86.8213C10.6504 87.833 10.3587 88.6396 9.77539 89.2412C9.19206 89.8382 8.39225 90.1367 7.37598 90.1367C6.46452 90.1367 5.70801 89.8792 5.10645 89.3643C4.50944 88.8447 4.18587 88.1611 4.13574 87.3135H5.74219C5.80599 87.7965 5.97917 88.168 6.26172 88.4277C6.54427 88.6829 6.91341 88.8105 7.36914 88.8105C7.87956 88.8105 8.27604 88.6283 8.55859 88.2637C8.8457 87.8991 8.98926 87.4023 8.98926 86.7734C8.98926 86.1673 8.83203 85.6888 8.51758 85.3379C8.20312 84.9824 7.77018 84.8047 7.21875 84.8047C6.91797 84.8047 6.66276 84.8457 6.45312 84.9277C6.24349 85.0052 6.01562 85.1602 5.76953 85.3926L4.44336 85.0645ZM18.4434 85.8096C18.4434 87.2406 18.1745 88.3206 17.6367 89.0498C17.1035 89.7744 16.29 90.1367 15.1963 90.1367C14.1208 90.1367 13.3096 89.7835 12.7627 89.0771C12.2204 88.3662 11.9424 87.3158 11.9287 85.9258V84.2031C11.9287 82.7721 12.1953 81.6989 12.7285 80.9834C13.2663 80.2679 14.0843 79.9102 15.1826 79.9102C16.2718 79.9102 17.083 80.2588 17.6162 80.9561C18.154 81.6533 18.4297 82.6969 18.4434 84.0869V85.8096ZM16.7822 83.9502C16.7822 83.016 16.6546 82.3324 16.3994 81.8994C16.1442 81.4619 15.7386 81.2432 15.1826 81.2432C14.6403 81.2432 14.2415 81.4505 13.9863 81.8652C13.7311 82.2754 13.5967 82.918 13.583 83.793V86.0488C13.583 86.9785 13.7129 87.6712 13.9727 88.127C14.2324 88.5827 14.6403 88.8105 15.1963 88.8105C15.7295 88.8105 16.1237 88.6009 16.3789 88.1816C16.6341 87.7578 16.7686 87.097 16.7822 86.1992V83.9502ZM23.0371 85.7002L21.9092 86.8965V90H20.1797V80.0469H21.9092V84.7158L22.8662 83.5332L25.7783 80.0469H27.8701L24.1719 84.4561L28.082 90H26.0312L23.0371 85.7002Z" fill="#A0AAC8"/>
<g clip-path="url(#clip0)">
<g filter="url(#filter0_i)">
<path d="M107 150C72 150 38 111 38 111V243H454L453 136C453 136 419 103 384 103C349 103 349 150 315 150C280 150 280 142 245 142C211 142 211 103 176 103C142 103 142 150 107 150Z" fill="#C7FFC9" fill-opacity="0.1"/>
<rect x="452" y="231" width="414" height="75" fill="#C7FFC9" fill-opacity="0.1"/>
<rect x="38" y="231" width="414" height="75" fill="#C7FFC9" fill-opacity="0.1"/>
</g>
</g>
<path d="M38 112C38 112 72 151 107 151C142 151 142 104 176 104C211 104 211 143 245 143C280 143 280 151 315 151C349 151 349 104 384 104C419 104 453 137 453 137" stroke="#1F593A" stroke-width="2"/>
<path d="M38 85V244" stroke="#F3F6FF"/>
<path d="M38 244H454" stroke="#F3F6FF"/>
<path d="M38 164H454" stroke="#F3F6FF"/>
<path d="M38 85H454" stroke="#F3F6FF"/>
<circle cx="38" cy="111" r="6" fill="black" stroke="white" stroke-width="4"/>
<circle cx="107" cy="152" r="6" fill="black" stroke="white" stroke-width="4"/>
<circle cx="176" cy="104" r="6" fill="black" stroke="white" stroke-width="4"/>
<circle cx="246" cy="143" r="6" fill="black" stroke="white" stroke-width="4"/>
<circle cx="315" cy="152" r="6" fill="black" stroke="white" stroke-width="4"/>
<circle cx="384" cy="104" r="6" fill="black" stroke="white" stroke-width="4"/>
<circle cx="454" cy="139" r="6" fill="black" stroke="white" stroke-width="4"/>
<path d="M24.4375 13.9375V25.1758C24.4375 27.043 23.8516 28.5195 22.6797 29.6055C21.5156 30.6914 19.9219 31.2344 17.8984 31.2344C15.9062 31.2344 14.3242 30.707 13.1523 29.6523C11.9805 28.5977 11.3828 27.1484 11.3594 25.3047V13.9375H14.875V25.1992C14.875 26.3164 15.1406 27.1328 15.6719 27.6484C16.2109 28.1562 16.9531 28.4102 17.8984 28.4102C19.875 28.4102 20.8789 27.3711 20.9102 25.293V13.9375H24.4375ZM30.2148 18.3203L30.3203 19.7852C31.2266 18.6523 32.4414 18.0859 33.9648 18.0859C35.3086 18.0859 36.3086 18.4805 36.9648 19.2695C37.6211 20.0586 37.957 21.2383 37.9727 22.8086V31H34.5859V22.8906C34.5859 22.1719 34.4297 21.6523 34.1172 21.332C33.8047 21.0039 33.2852 20.8398 32.5586 20.8398C31.6055 20.8398 30.8906 21.2461 30.4141 22.0586V31H27.0273V18.3203H30.2148ZM44.125 31H40.7266V18.3203H44.125V31ZM40.5273 15.0391C40.5273 14.5312 40.6953 14.1133 41.0312 13.7852C41.375 13.457 41.8398 13.293 42.4258 13.293C43.0039 13.293 43.4648 13.457 43.8086 13.7852C44.1523 14.1133 44.3242 14.5312 44.3242 15.0391C44.3242 15.5547 44.1484 15.9766 43.7969 16.3047C43.4531 16.6328 42.9961 16.7969 42.4258 16.7969C41.8555 16.7969 41.3945 16.6328 41.043 16.3047C40.6992 15.9766 40.5273 15.5547 40.5273 15.0391ZM46.3984 24.543C46.3984 22.5508 46.8398 20.9766 47.7227 19.8203C48.6133 18.6641 49.832 18.0859 51.3789 18.0859C52.7383 18.0859 53.8203 18.6055 54.625 19.6445L54.8477 18.3203H57.8242V35.875H54.4258V29.9102C53.6445 30.793 52.6211 31.2344 51.3555 31.2344C49.8477 31.2344 48.6445 30.6484 47.7461 29.4766C46.8477 28.3047 46.3984 26.6602 46.3984 24.543ZM49.7852 24.7891C49.7852 26 49.9961 26.9219 50.418 27.5547C50.8477 28.1875 51.4492 28.5039 52.2227 28.5039C53.2617 28.5039 53.9961 28.0898 54.4258 27.2617V22.0234C54.0039 21.2266 53.2773 20.8281 52.2461 20.8281C51.4648 20.8281 50.8594 21.1445 50.4297 21.7773C50 22.4102 49.7852 23.4141 49.7852 24.7891ZM68.0898 29.7109C67.2539 30.7266 66.0977 31.2344 64.6211 31.2344C63.2617 31.2344 62.2227 30.8438 61.5039 30.0625C60.793 29.2812 60.4297 28.1367 60.4141 26.6289V18.3203H63.8008V26.5117C63.8008 27.832 64.4023 28.4922 65.6055 28.4922C66.7539 28.4922 67.543 28.0938 67.9727 27.2969V18.3203H71.3711V31H68.1836L68.0898 29.7109ZM79.7617 31.2344C77.9023 31.2344 76.3867 30.6641 75.2148 29.5234C74.0508 28.3828 73.4688 26.8633 73.4688 24.9648V24.6367C73.4688 23.3633 73.7148 22.2266 74.207 21.2266C74.6992 20.2188 75.3945 19.4453 76.293 18.9062C77.1992 18.3594 78.2305 18.0859 79.3867 18.0859C81.1211 18.0859 82.4844 18.6328 83.4766 19.7266C84.4766 20.8203 84.9766 22.3711 84.9766 24.3789V25.7617H76.9023C77.0117 26.5898 77.3398 27.2539 77.8867 27.7539C78.4414 28.2539 79.1406 28.5039 79.9844 28.5039C81.2891 28.5039 82.3086 28.0312 83.043 27.0859L84.707 28.9492C84.1992 29.668 83.5117 30.2305 82.6445 30.6367C81.7773 31.0352 80.8164 31.2344 79.7617 31.2344ZM79.375 20.8281C78.7031 20.8281 78.1562 21.0547 77.7344 21.5078C77.3203 21.9609 77.0547 22.6094 76.9375 23.4531H81.6484V23.1836C81.6328 22.4336 81.4297 21.8555 81.0391 21.4492C80.6484 21.0352 80.0938 20.8281 79.375 20.8281ZM97.6328 26.8633L99.9883 18.3203H103.527L99.25 31H96.0156L91.7383 18.3203H95.2773L97.6328 26.8633ZM108.602 31H105.203V18.3203H108.602V31ZM105.004 15.0391C105.004 14.5312 105.172 14.1133 105.508 13.7852C105.852 13.457 106.316 13.293 106.902 13.293C107.48 13.293 107.941 13.457 108.285 13.7852C108.629 14.1133 108.801 14.5312 108.801 15.0391C108.801 15.5547 108.625 15.9766 108.273 16.3047C107.93 16.6328 107.473 16.7969 106.902 16.7969C106.332 16.7969 105.871 16.6328 105.52 16.3047C105.176 15.9766 105.004 15.5547 105.004 15.0391ZM118.27 27.4961C118.27 27.082 118.062 26.7578 117.648 26.5234C117.242 26.2812 116.586 26.0664 115.68 25.8789C112.664 25.2461 111.156 23.9648 111.156 22.0352C111.156 20.9102 111.621 19.9727 112.551 19.2227C113.488 18.4648 114.711 18.0859 116.219 18.0859C117.828 18.0859 119.113 18.4648 120.074 19.2227C121.043 19.9805 121.527 20.9648 121.527 22.1758H118.141C118.141 21.6914 117.984 21.293 117.672 20.9805C117.359 20.6602 116.871 20.5 116.207 20.5C115.637 20.5 115.195 20.6289 114.883 20.8867C114.57 21.1445 114.414 21.4727 114.414 21.8711C114.414 22.2461 114.59 22.5508 114.941 22.7852C115.301 23.0117 115.902 23.2109 116.746 23.3828C117.59 23.5469 118.301 23.7344 118.879 23.9453C120.668 24.6016 121.562 25.7383 121.562 27.3555C121.562 28.5117 121.066 29.4492 120.074 30.168C119.082 30.8789 117.801 31.2344 116.23 31.2344C115.168 31.2344 114.223 31.0469 113.395 30.6719C112.574 30.2891 111.93 29.7695 111.461 29.1133C110.992 28.4492 110.758 27.7344 110.758 26.9688H113.969C114 27.5703 114.223 28.0312 114.637 28.3516C115.051 28.6719 115.605 28.832 116.301 28.832C116.949 28.832 117.438 28.7109 117.766 28.4688C118.102 28.2188 118.27 27.8945 118.27 27.4961ZM127.328 31H123.93V18.3203H127.328V31ZM123.73 15.0391C123.73 14.5312 123.898 14.1133 124.234 13.7852C124.578 13.457 125.043 13.293 125.629 13.293C126.207 13.293 126.668 13.457 127.012 13.7852C127.355 14.1133 127.527 14.5312 127.527 15.0391C127.527 15.5547 127.352 15.9766 127 16.3047C126.656 16.6328 126.199 16.7969 125.629 16.7969C125.059 16.7969 124.598 16.6328 124.246 16.3047C123.902 15.9766 123.73 15.5547 123.73 15.0391ZM134.184 15.2031V18.3203H136.352V20.8047H134.184V27.1328C134.184 27.6016 134.273 27.9375 134.453 28.1406C134.633 28.3438 134.977 28.4453 135.484 28.4453C135.859 28.4453 136.191 28.418 136.48 28.3633V30.9297C135.816 31.1328 135.133 31.2344 134.43 31.2344C132.055 31.2344 130.844 30.0352 130.797 27.6367V20.8047H128.945V18.3203H130.797V15.2031H134.184ZM137.359 24.543C137.359 23.2852 137.602 22.1641 138.086 21.1797C138.57 20.1953 139.266 19.4336 140.172 18.8945C141.086 18.3555 142.145 18.0859 143.348 18.0859C145.059 18.0859 146.453 18.6094 147.531 19.6562C148.617 20.7031 149.223 22.125 149.348 23.9219L149.371 24.7891C149.371 26.7344 148.828 28.2969 147.742 29.4766C146.656 30.6484 145.199 31.2344 143.371 31.2344C141.543 31.2344 140.082 30.6484 138.988 29.4766C137.902 28.3047 137.359 26.7109 137.359 24.6953V24.543ZM140.746 24.7891C140.746 25.9922 140.973 26.9141 141.426 27.5547C141.879 28.1875 142.527 28.5039 143.371 28.5039C144.191 28.5039 144.832 28.1914 145.293 27.5664C145.754 26.9336 145.984 25.9258 145.984 24.543C145.984 23.3633 145.754 22.4492 145.293 21.8008C144.832 21.1523 144.184 20.8281 143.348 20.8281C142.52 20.8281 141.879 21.1523 141.426 21.8008C140.973 22.4414 140.746 23.4375 140.746 24.7891ZM158.582 21.4961C158.121 21.4336 157.715 21.4023 157.363 21.4023C156.082 21.4023 155.242 21.8359 154.844 22.7031V31H151.457V18.3203H154.656L154.75 19.832C155.43 18.668 156.371 18.0859 157.574 18.0859C157.949 18.0859 158.301 18.1367 158.629 18.2383L158.582 21.4961ZM167.09 27.4961C167.09 27.082 166.883 26.7578 166.469 26.5234C166.062 26.2812 165.406 26.0664 164.5 25.8789C161.484 25.2461 159.977 23.9648 159.977 22.0352C159.977 20.9102 160.441 19.9727 161.371 19.2227C162.309 18.4648 163.531 18.0859 165.039 18.0859C166.648 18.0859 167.934 18.4648 168.895 19.2227C169.863 19.9805 170.348 20.9648 170.348 22.1758H166.961C166.961 21.6914 166.805 21.293 166.492 20.9805C166.18 20.6602 165.691 20.5 165.027 20.5C164.457 20.5 164.016 20.6289 163.703 20.8867C163.391 21.1445 163.234 21.4727 163.234 21.8711C163.234 22.2461 163.41 22.5508 163.762 22.7852C164.121 23.0117 164.723 23.2109 165.566 23.3828C166.41 23.5469 167.121 23.7344 167.699 23.9453C169.488 24.6016 170.383 25.7383 170.383 27.3555C170.383 28.5117 169.887 29.4492 168.895 30.168C167.902 30.8789 166.621 31.2344 165.051 31.2344C163.988 31.2344 163.043 31.0469 162.215 30.6719C161.395 30.2891 160.75 29.7695 160.281 29.1133C159.812 28.4492 159.578 27.7344 159.578 26.9688H162.789C162.82 27.5703 163.043 28.0312 163.457 28.3516C163.871 28.6719 164.426 28.832 165.121 28.832C165.77 28.832 166.258 28.7109 166.586 28.4688C166.922 28.2188 167.09 27.8945 167.09 27.4961Z" fill="black"/>
<path d="M325 0.5C313.678 0.5 304.5 9.67816 304.5 21V48C304.5 51.0376 306.962 53.5 310 53.5H434C445.322 53.5 454.5 44.3218 454.5 33V6C454.5 2.96243 452.038 0.5 449 0.5H325Z" stroke="#F3F6FF"/>
<path d="M334.078 29.1875L335.828 20.625H337.789L335.164 32H333.273L331.109 23.6953L328.898 32H327L324.375 20.625H326.336L328.102 29.1719L330.273 20.625H331.93L334.078 29.1875ZM342.523 32.1562C341.32 32.1562 340.344 31.7786 339.594 31.0234C338.849 30.263 338.477 29.2526 338.477 27.9922V27.7578C338.477 26.9141 338.638 26.1615 338.961 25.5C339.289 24.8333 339.747 24.3151 340.336 23.9453C340.924 23.5755 341.581 23.3906 342.305 23.3906C343.456 23.3906 344.344 23.7578 344.969 24.4922C345.599 25.2266 345.914 26.2656 345.914 27.6094V28.375H340.391C340.448 29.0729 340.68 29.625 341.086 30.0312C341.497 30.4375 342.013 30.6406 342.633 30.6406C343.503 30.6406 344.211 30.2891 344.758 29.5859L345.781 30.5625C345.443 31.0677 344.99 31.4609 344.422 31.7422C343.859 32.0182 343.227 32.1562 342.523 32.1562ZM342.297 24.9141C341.776 24.9141 341.354 25.0964 341.031 25.4609C340.714 25.8255 340.51 26.3333 340.422 26.9844H344.039V26.8438C343.997 26.2083 343.828 25.7292 343.531 25.4062C343.234 25.0781 342.823 24.9141 342.297 24.9141ZM351.117 32.1562C349.914 32.1562 348.938 31.7786 348.188 31.0234C347.443 30.263 347.07 29.2526 347.07 27.9922V27.7578C347.07 26.9141 347.232 26.1615 347.555 25.5C347.883 24.8333 348.341 24.3151 348.93 23.9453C349.518 23.5755 350.174 23.3906 350.898 23.3906C352.049 23.3906 352.938 23.7578 353.562 24.4922C354.193 25.2266 354.508 26.2656 354.508 27.6094V28.375H348.984C349.042 29.0729 349.273 29.625 349.68 30.0312C350.091 30.4375 350.607 30.6406 351.227 30.6406C352.096 30.6406 352.805 30.2891 353.352 29.5859L354.375 30.5625C354.036 31.0677 353.583 31.4609 353.016 31.7422C352.453 32.0182 351.82 32.1562 351.117 32.1562ZM350.891 24.9141C350.37 24.9141 349.948 25.0964 349.625 25.4609C349.307 25.8255 349.104 26.3333 349.016 26.9844H352.633V26.8438C352.591 26.2083 352.422 25.7292 352.125 25.4062C351.828 25.0781 351.417 24.9141 350.891 24.9141ZM358.734 28.375L357.891 29.2422V32H355.992V20H357.891V26.9219L358.484 26.1797L360.82 23.5469H363.102L359.961 27.0703L363.438 32H361.242L358.734 28.375ZM366.367 32H364.469V20H366.367V32ZM371.398 29.2812L373.117 23.5469H375.141L371.781 33.2812C371.266 34.7031 370.391 35.4141 369.156 35.4141C368.88 35.4141 368.576 35.3672 368.242 35.2734V33.8047L368.602 33.8281C369.081 33.8281 369.44 33.7396 369.68 33.5625C369.924 33.3906 370.117 33.099 370.258 32.6875L370.531 31.9609L367.562 23.5469H369.609L371.398 29.2812Z" fill="#7979B2"/>
<path d="M426 31C425.767 31.0005 425.54 30.9191 425.36 30.77L419.36 25.77C419.156 25.6003 419.028 25.3564 419.003 25.092C418.979 24.8275 419.061 24.5642 419.23 24.36C419.4 24.1558 419.644 24.0274 419.908 24.003C420.173 23.9786 420.436 24.0603 420.64 24.23L426 28.71L431.36 24.39C431.463 24.307 431.58 24.2449 431.707 24.2075C431.833 24.1701 431.965 24.158 432.096 24.1719C432.227 24.1859 432.354 24.2256 432.47 24.2887C432.586 24.3519 432.688 24.4373 432.77 24.54C432.862 24.6429 432.931 24.7635 432.974 24.8944C433.017 25.0252 433.032 25.1635 433.019 25.3006C433.006 25.4377 432.965 25.5705 432.898 25.6909C432.831 25.8112 432.74 25.9165 432.63 26L426.63 30.83C426.445 30.9555 426.223 31.0154 426 31Z" fill="#7979B2"/>
<defs>
<filter id="filter0_i" x="-378" y="103" width="1249" height="219" filterUnits="userSpaceOnUse" color-interpolation-filters="sRGB">
<feFlood flood-opacity="0" result="BackgroundImageFix"/>
<feBlend mode="normal" in="SourceGraphic" in2="BackgroundImageFix" result="shape"/>
<feColorMatrix in="SourceAlpha" type="matrix" values="0 0 0 0 0 0 0 0 0 0 0 0 0 0 0 0 0 0 127 0" result="hardAlpha"/>
<feOffset dy="16"/>
<feGaussianBlur stdDeviation="47"/>
<feComposite in2="hardAlpha" operator="arithmetic" k2="-1" k3="1"/>
<feColorMatrix type="matrix" values="0 0 0 0 0.345098 0 0 0 0 0.25098 0 0 0 0 0.733333 0 0 0 0.1 0"/>
<feBlend mode="normal" in2="shape" result="effect1_innerShadow"/>
</filter>
<clipPath id="clip0">
<rect width="416" height="140" fill="white" transform="translate(38 103)"/>
</clipPath>
</defs>
</svg>
